<?xml version="1.0" standalone="no"?> <!DOCTYPE svg PUBLIC "-//W3C//DTD SVG 1.0//EN" "http://www.w3.org/TR/2001/REC-SVG-20010904/DTD/svg10.dtd" > <svg xmlns="http://www.w3.org/2000/svg" width="100%" height="100%">
<defs >
<font id="Caeciliae-staffless" horiz-adv-x="191" ><font-face
    font-family="Caeciliae Staffless"
    units-per-em="1000"
    panose-1="2 0 6 3 0 0 0 0 0 0"
    ascent="1408"
    descent="-722"
    alphabetic="0" />
<missing-glyph horiz-adv-x="432" d="M66 33H333V633H66V33ZM33 0V666H366V0H33Z" />
<glyph unicode="&#x0;" glyph-name="uni0000" horiz-adv-x="0" />
<glyph unicode="&#xc;" glyph-name="uni000C" horiz-adv-x="333" />
<glyph unicode=" " glyph-name="space" horiz-adv-x="128" />
<glyph unicode="&apos;" glyph-name="quotesingle" horiz-adv-x="32" />
<glyph unicode="+" glyph-name="plus" horiz-adv-x="128" d="M57 617V867H72V617H57Z" />
<glyph unicode="," glyph-name="comma" horiz-adv-x="193" d="M43 833Q43 876 90 876Q113 876 135 854T158 781Q158 677 35 649Q31 653 31 661Q31 663 32 664Q115 701 115 752Q115 774 106 787T87 804T61 811Q43 813 43 833Z" />
<glyph unicode="-" glyph-name="hyphen" horiz-adv-x="64" />
<glyph unicode="." glyph-name="period" horiz-adv-x="0" d="M72 -133T62 -133T43 -125T34 -106T42 -86T61 -78T80 -86T89 -105T81 -125Z" />
<glyph unicode="/" glyph-name="slash" horiz-adv-x="64" />
<glyph unicode="0" glyph-name="zero" horiz-adv-x="0" d="M0 -109H16V-157H0V-109ZM37 -109H53V-157H37V-109ZM72 -109H88V-157H72V-109ZM109 -109H125V-157H109V-109Z" />
<glyph unicode="1" glyph-name="one" horiz-adv-x="0" d="M0 16H16V-32H0V16ZM37 16H53V-32H37V16ZM72 16H88V-32H72V16ZM109 16H125V-32H109V16Z" />
<glyph unicode="2" glyph-name="two" horiz-adv-x="0" d="M0 141H16V93H0V141ZM37 141H53V93H37V141ZM72 141H88V93H72V141ZM109 141H125V93H109V141Z" />
<glyph unicode="3" glyph-name="three" horiz-adv-x="0" d="M0 266H16V218H0V266ZM37 266H53V218H37V266ZM72 266H88V218H72V266ZM109 266H125V218H109V266Z" />
<glyph unicode="4" glyph-name="four" horiz-adv-x="0" d="M0 391H16V343H0V391ZM37 391H53V343H37V391ZM72 391H88V343H72V391ZM109 391H125V343H109V391Z" />
<glyph unicode="5" glyph-name="five" horiz-adv-x="0" d="M0 516H16V468H0V516ZM37 516H53V468H37V516ZM72 516H88V468H72V516ZM109 516H125V468H109V516Z" />
<glyph unicode="6" glyph-name="six" horiz-adv-x="0" d="M0 641H16V593H0V641ZM37 641H53V593H37V641ZM72 641H88V593H72V641ZM109 641H125V593H109V641Z" />
<glyph unicode="7" glyph-name="seven" horiz-adv-x="0" d="M0 766H16V718H0V766ZM37 766H53V718H37V766ZM72 766H88V718H72V766ZM109 766H125V718H109V766Z" />
<glyph unicode="8" glyph-name="eight" horiz-adv-x="0" d="M0 891H16V843H0V891ZM37 891H53V843H37V891ZM72 891H88V843H72V891ZM109 891H125V843H109V891Z" />
<glyph unicode="9" glyph-name="nine" horiz-adv-x="0" d="M0 1016H16V968H0V1016ZM37 1016H53V968H37V1016ZM72 1016H88V968H72V1016ZM109 1016H125V968H109V1016Z" />
<glyph unicode=";" glyph-name="semicolon" horiz-adv-x="128" d="M57 117V617H72V117H57Z" />
<glyph unicode="=" glyph-name="equal" horiz-adv-x="128" />
<glyph unicode="@" glyph-name="at" horiz-adv-x="432" d="M66 33H333V633H66V33ZM33 0V666H366V0H33Z" />
<glyph unicode="A" glyph-name="A" horiz-adv-x="0" d="M0 -234H16V-282H0V-234ZM37 -234H53V-282H37V-234ZM72 -234H88V-282H72V-234ZM109 -234H125V-282H109V-234Z" />
<glyph unicode="B" glyph-name="B" horiz-adv-x="0" d="M0 -359H16V-407H0V-359ZM37 -359H53V-407H37V-359ZM72 -359H88V-407H72V-359ZM109 -359H125V-407H109V-359Z" />
<glyph unicode="H" glyph-name="H" horiz-adv-x="0" d="M5 -63L3 -83H-135L-132 -63H5Z" />
<glyph unicode="I" glyph-name="I" horiz-adv-x="0" d="M-74 130H-55V36H-74V130Z" />
<glyph unicode="K" glyph-name="K" horiz-adv-x="128" d="M128 -238Q121 -211 90 -200T33 -189Q8 -189 0 -204V-69Q0 -44 27 -44Q27 -44 28 -44Q40 -44 54 -45T94 -58T128 -88V-238Z" />
<glyph unicode="L" glyph-name="L" horiz-adv-x="11" d="M-12 -75Q11 -75 11 -94V-231H-1V-189Q-1 -166 -20 -166Q-41 -166 -53 -180V-112Q-53 -98 -41 -87T-12 -75Z" />
<glyph unicode="N" glyph-name="N" horiz-adv-x="96" d="M64 -65L109 -133L64 -200L19 -133L64 -65Z" />
<glyph unicode="O" glyph-name="O" horiz-adv-x="128" d="M98 -78Q128 -78 128 -39V-175Q128 -214 98 -214Q90 -214 65 -201T30 -188Q0 -188 0 -228V-92Q0 -53 30 -53Q39 -53 64 -65T98 -78Z" />
<glyph unicode="P" glyph-name="P" horiz-adv-x="128" d="M115 -202Q109 -173 69 -173Q34 -173 11 -189V-92Q11 -54 69 -54Q128 -54 128 -92V-321Q128 -326 122 -327T99 -328Q95 -328 83 -328T61 -328Q51 -328 38 -328T22 -328Q8 -328 4 -327T0 -322V-217Q0 -210
5 -210H8Q13 -211 58 -211Q64 -211 72 -211T83 -211Q100 -211 106 -210T115 -202Z" />
<glyph unicode="R" glyph-name="R" horiz-adv-x="386" d="M363 -200Q141 -200 0 -76V76Q55 22 183 -45Q242 -76 336 -76Q377 -76 387 -38V-186Q387 -200 363 -200Z" />
<glyph unicode="X" glyph-name="X" horiz-adv-x="11" d="M12 -8V-200H0V-8H12Z" />
<glyph unicode="Z" glyph-name="Z" horiz-adv-x="0" d="M0 1141H16V1093H0V1141ZM37 1141H53V1093H37V1141ZM72 1141H88V1093H72V1141ZM109 1141H125V1093H109V1141Z" />
<glyph unicode="_" glyph-name="underscore" horiz-adv-x="257" />
<glyph unicode="a" glyph-name="a" horiz-adv-x="128" d="M17 78Q22 80 27 80T38 78V4L37 -45L62 -41Q83 -37 98 -37Q103 -37 104 -42L107 -338Q103 -343 98 -343Q97 -343 86 -339Q87 -338 87 -257V-219L27 -229Q20 -228 19 -221V-112L18 -11L17 61V78ZM89 -82L37
-90Q36 -90 36 -183L89 -174V-82Z" />
<glyph unicode="b" glyph-name="b" horiz-adv-x="128" d="M37 -38Q71 -38 98 -56T126 -93Q126 -223 125 -223Q51 -223 6 -176Q1 -62 2 36Q2 68 2 99Q2 120 12 120Q20 120 20 100L18 -128Q59 -174 96 -174Q114 -174 114 -156Q114 -139 106 -129T71 -102L37 -83V-38Z" />
<glyph unicode="c" glyph-name="c" horiz-adv-x="128" d="M0 -91Q0 -54 64 -54Q128 -54 128 -91V-212Q108 -192 63 -192Q33 -192 14 -209V-342Q14 -378 9 -378Q0 -376 0 -362V-91Z" />
<glyph unicode="d" glyph-name="d" horiz-adv-x="128" d="M83 29Q46 29 23 53T0 116V367Q0 406 22 429T83 453Q107 453 117 440T128 409V271L120 278Q95 300 63 300Q40 300 24 283T8 242Q8 217 24 200T63 183Q96 183 120 204L128 212V73Q128 53 116 41T83 29Z" />
<glyph unicode="f" glyph-name="f" horiz-adv-x="248" d="M206 290Q170 290 148 313T126 374V611Q126 648 148 671T206 694Q248 694 248 653V521Q217 548 188 548Q164 548 149 532T134 494T149 454T188 437Q221 437 248 464V332Q248 313 237 302T206 290ZM103
267Q98 267 98 275V421Q82 437 54 437Q20 437 0 422V534Q0 569 54 569T109 534V286Q109 268 103 267Z" />
<glyph unicode="h" glyph-name="h" horiz-adv-x="0" d="M5 -410L3 -430H-135L-132 -410H5Z" />
<glyph unicode="i" glyph-name="i" horiz-adv-x="0" d="M-74 -307H-55V-401H-74V-307Z" />
<glyph unicode="k" glyph-name="k" horiz-adv-x="128" d="M128 -176Q119 -195 94 -206T54 -218T28 -220H27Q0 -220 0 -194V-60Q8 -74 33 -74Q59 -74 90 -63T128 -25V-176Z" />
<glyph unicode="l" glyph-name="l" horiz-adv-x="11" d="M-12 -189Q-29 -189 -41 -178T-53 -151V-84Q-41 -98 -20 -98Q-1 -98 -1 -74V-32H11V-170Q11 -189 -12 -189Z" />
<glyph unicode="n" glyph-name="n" horiz-adv-x="97" d="M62 -39L125 -133L62 -227L0 -133L62 -39ZM0 750H135V734H0V750ZM0 500H135V484H0V500ZM0 250H135V234H0V250ZM0 0H135V-16H0V0Z" />
<glyph unicode="o" glyph-name="o" horiz-adv-x="128" d="M30 -215Q0 -215 0 -176V-40Q0 -79 30 -79Q42 -79 64 -67T98 -54Q128 -54 128 -93V-229Q128 -189 98 -189Q87 -189 64 -202T30 -215Z" />
<glyph unicode="p" glyph-name="p" horiz-adv-x="128" d="M64 -54Q128 -54 128 -91V-212Q107 -191 64 -191T0 -212V-91Q0 -54 64 -54Z" />
<glyph unicode="q" glyph-name="q" horiz-adv-x="128" d="M0 750H135V734H0V750ZM0 500H135V484H0V500ZM0 250H135V234H0V250ZM0 0H135V-16H0V0ZM0 -185V-75Q16 -112 25 -112Q42 -112 42 -56Q49 -96 68 -96Q84 -96 84 -45Q90 -86 100 -86Q113 -86 119 -29V-148Q119
-176 111 -179H107Q97 -179 92 -158Q88 -197 70 -197Q47 -197 41 -171Q35 -207 21 -207Q0 -207 0 -185Z" />
<glyph unicode="s" glyph-name="s" horiz-adv-x="128" d="M65 -35Q73 -60 96 -89L127 -129L108 -164Q77 -218 36 -229Q45 -222 45 -210Q45 -193 26 -165L2 -129L65 -35Z" />
<glyph unicode="u" glyph-name="u" horiz-adv-x="0" d="M64 -216Q8 -207 8 -178V-40Q26 -56 52 -56V196Q52 218 58 218Q58 218 59 218Q66 218 66 206Q66 200 64 192V-216Z" />
<glyph unicode="v" glyph-name="v" horiz-adv-x="128" d="M119 -378Q114 -378 114 -342V-209Q95 -192 64 -192Q20 -192 0 -212V-91Q0 -54 64 -54Q128 -54 128 -91V-362Q128 -376 119 -378Z" />
<glyph unicode="w" glyph-name="w" horiz-adv-x="128" d="M64 -85Q46 -85 33 -98T19 -131T32 -165T64 -179Q85 -179 98 -165T111 -132T98 -99T64 -85ZM64 -54Q128 -54 128 -91V-212Q107 -191 64 -191T0 -212V-91Q0 -54 64 -54Z" />
<glyph unicode="x" glyph-name="x" horiz-adv-x="11" d="M12 117V-133H0V117H12Z" />
<glyph unicode="|" glyph-name="bar" horiz-adv-x="96" d="M98 -16H82V750H98V-16Z" />
<glyph unicode="~" glyph-name="asciitilde" horiz-adv-x="0" d="M12 1024Q22 1024 33 1018T44 1000T36 982L-62 899Q-65 898 -66 898Q-67 898 -67 902L-6 1011Q1 1024 12 1024Z" />
<glyph unicode="&#x2018;" glyph-name="quoteleft" horiz-adv-x="32" />
<glyph unicode="&#x2019;" glyph-name="quoteright" horiz-adv-x="32" />
<glyph unicode="&#x211f;" glyph-name="uni211F" horiz-adv-x="707" d="M238 349Q296 349 337 363T398 401T426 448T434 496Q434 561 395 600T288 640Q265 640 210 632V349H238ZM486 184Q505 162 527 132T562 87T593 56T635 31T693 19V0H455V19L494 20L442 92Q398
-19 398 -77Q398 -104 412 -128T426 -182Q426 -191 420 -202T400 -214Q380 -214 368 -189T356 -128Q356 -38 405 82L419 122L282 317Q255 315 241 315Q221 315 210 317V120Q210 67 223 43T282 19H308V0H18V19H44Q89 19 101 42T114 120V558Q114 621 102 638Q80 660
44 660H18V678H264Q362 678 418 664T512 604Q547 562 547 505Q547 490 545 476T534 439T508 396T458 359T380 330L453 224L462 212L560 428Q602 536 602 594Q602 621 589 644T575 699Q575 708 581 719T600 731Q620 731 632 706T645 645Q645 607 634 557T614 479T598
434L486 184Z" />
<glyph unicode="&#x2123;" glyph-name="uni2123" horiz-adv-x="740" d="M253 -140Q233 -140 221 -115T208 -54Q208 -16 220 42T256 156L275 204L118 570Q97 620 82 633L73 640Q51 656 8 660V678H286V660Q246 657 229 646T211 613Q211 590 234 536L311 359Q314
351 316 347T318 341T319 338T321 335T324 326L367 436Q409 539 409 602Q409 629 396 653T382 708Q382 716 388 728T407 740Q427 740 439 714T452 654Q452 565 404 442L343 285Q345 279 346 278T348 273T353 263L407 138L567 532Q590 591 590 610Q590 631 574 642T518
660V678H727V660Q689 655 673 638Q647 614 626 562L390 -16H370L294 162Q251 54 251 -3Q251 -30 264 -54T278 -108Q278 -117 272 -128T253 -140Z" />
<glyph unicode="&#xe0e1;" glyph-name="uniE0E1" horiz-adv-x="0" />
<glyph unicode="&#xe0e2;" glyph-name="uniE0E2" horiz-adv-x="0" />
<glyph unicode="&#xe0f0;" glyph-name="uniE0F0" horiz-adv-x="128" d="M37 -38Q71 -38 98 -56T126 -93Q126 -223 125 -223Q51 -223 6 -176Q2 -62 2 36Q2 68 2 99Q2 120 12 120Q20 120 20 100L18 -128Q59 -174 96 -174Q114 -174 114 -156Q114 -139 106 -129T71
-102L37 -83V-38Z" />
<glyph unicode="&#xe0f1;" glyph-name="uniE0F1" horiz-adv-x="128" d="M37 -288Q71 -288 98 -306T126 -343Q126 -473 125 -473Q51 -473 6 -426Q1 -312 2 -214Q2 -182 2 -151Q2 -130 12 -130Q20 -130 20 -150L18 -378Q59 -424 96 -424Q114 -424 114 -406Q114 -389
106 -379T71 -352L37 -333V-288Z" />
<glyph unicode="&#xe0f2;" glyph-name="uniE0F2" horiz-adv-x="128" d="M37 -38Q71 -38 98 -56T126 -93Q126 -223 125 -223Q51 -223 6 -176Q1 -62 2 36Q2 68 2 99Q2 120 12 120Q20 120 20 100L18 -128Q59 -174 96 -174Q114 -174 114 -156Q114 -139 106 -129T71
-102L37 -83V-38Z" />
<glyph unicode="&#xe0f3;" glyph-name="uniE0F3" horiz-adv-x="128" d="M37 212Q71 212 98 194T126 157Q126 27 125 27Q51 27 6 74Q1 188 2 286Q2 318 2 349Q2 370 12 370Q20 370 20 350L18 122Q59 76 96 76Q114 76 114 94Q114 111 106 121T71 148L37 167V212Z" />
<glyph unicode="&#xe0f4;" glyph-name="uniE0F4" horiz-adv-x="128" d="M37 462Q71 462 98 444T126 407Q126 277 125 277Q51 277 6 324Q1 438 2 536Q2 568 2 599Q2 620 12 620Q20 620 20 600L18 372Q59 326 96 326Q114 326 114 344Q114 361 106 371T71 398L37 417V462Z" />
<glyph unicode="&#xe0f5;" glyph-name="uniE0F5" horiz-adv-x="128" d="M37 712Q71 712 98 694T126 657Q126 527 125 527Q51 527 6 574Q1 688 2 786Q2 818 2 849Q2 870 12 870Q20 870 20 850L18 622Q59 576 96 576Q114 576 114 594Q114 611 106 621T71 648L37 667V712Z" />
<glyph unicode="&#xe0f6;" glyph-name="uniE0F6" horiz-adv-x="128" d="M37 962Q71 962 98 944T126 907Q126 777 125 777Q51 777 6 824Q1 938 2 1036Q2 1068 2 1099Q2 1120 12 1120Q20 1120 20 1100L18 872Q59 826 96 826Q114 826 114 844Q114 861 106 871T71
898L37 917V962Z" />
<glyph unicode="&#xe0f7;" glyph-name="uniE0F7" horiz-adv-x="128" d="M37 1212Q71 1212 98 1194T126 1157Q126 1027 125 1027Q51 1027 6 1074Q1 1188 2 1286Q2 1318 2 1349Q2 1370 12 1370Q20 1370 20 1350L18 1122Q59 1076 96 1076Q114 1076 114 1094Q114 1111
106 1121T71 1148L37 1167V1212Z" />
<glyph unicode="&#xe0f8;" glyph-name="uniE0F8" horiz-adv-x="128" d="M17 78Q22 80 27 80T38 78V4L37 -45L62 -41Q83 -37 98 -37Q103 -37 104 -42L107 -338Q103 -343 98 -343Q97 -343 86 -339Q87 -338 87 -257V-219L27 -229Q20 -228 19 -221V-112L18 -11L17
61V78ZM89 -82L37 -90Q36 -90 36 -183L89 -174V-82Z" />
<glyph unicode="&#xe0f9;" glyph-name="uniE0F9" horiz-adv-x="128" d="M17 -172Q22 -170 27 -170T38 -172V-246L37 -295L62 -291Q83 -287 98 -287Q103 -287 104 -292L107 -588Q103 -593 98 -593Q97 -593 86 -589Q87 -588 87 -507V-469L27 -479Q20 -478 19 -471V-362L18
-261L17 -189V-172ZM89 -332L37 -340Q36 -340 36 -433L89 -424V-332Z" />
<glyph unicode="&#xe0fa;" glyph-name="uniE0FA" horiz-adv-x="128" d="M17 78Q22 80 27 80T38 78V4L37 -45L62 -41Q83 -37 98 -37Q103 -37 104 -42L107 -338Q103 -343 98 -343Q97 -343 86 -339Q87 -338 87 -257V-219L27 -229Q20 -228 19 -221V-112L18 -11L17
61V78ZM89 -82L37 -90Q36 -90 36 -183L89 -174V-82Z" />
<glyph unicode="&#xe0fb;" glyph-name="uniE0FB" horiz-adv-x="128" d="M17 328Q22 330 27 330T38 328V254L37 205L62 209Q83 213 98 213Q103 213 104 208L107 -88Q103 -93 98 -93Q97 -93 86 -89Q87 -88 87 -7V31L27 21Q20 22 19 29V138L18 239L17 311V328ZM89
168L37 160Q36 160 36 67L89 76V168Z" />
<glyph unicode="&#xe0fc;" glyph-name="uniE0FC" horiz-adv-x="128" d="M17 578Q22 580 27 580T38 578V504L37 455L62 459Q83 463 98 463Q103 463 104 458L107 162Q103 157 98 157Q97 157 86 161Q87 162 87 243V281L27 271Q20 272 19 279V388L18 489L17 561V578ZM89
418L37 410Q36 410 36 317L89 326V418Z" />
<glyph unicode="&#xe0fd;" glyph-name="uniE0FD" horiz-adv-x="128" d="M17 828Q22 830 27 830T38 828V754L37 705L62 709Q83 713 98 713Q103 713 104 708L107 412Q103 407 98 407Q97 407 86 411Q87 412 87 493V531L27 521Q20 522 19 529V638L18 739L17 811V828ZM89
668L37 660Q36 660 36 567L89 576V668Z" />
<glyph unicode="&#xe0fe;" glyph-name="uniE0FE" horiz-adv-x="128" d="M17 1078Q22 1080 27 1080T38 1078V1004L37 955L62 959Q83 963 98 963Q103 963 104 958L107 662Q103 657 98 657Q97 657 86 661Q87 662 87 743V781L27 771Q20 772 19 779V888L18 989L17 1061V1078ZM89
918L37 910Q36 910 36 817L89 826V918Z" />
<glyph unicode="&#xe0ff;" glyph-name="uniE0FF" horiz-adv-x="128" d="M17 1328Q22 1330 27 1330T38 1328V1254L37 1205L62 1209Q83 1213 98 1213Q103 1213 104 1208L107 912Q103 907 98 907Q97 907 86 911Q87 912 87 993V1031L27 1021Q20 1022 19 1029V1138L18
1239L17 1311V1328ZM89 1168L37 1160Q36 1160 36 1067L89 1076V1168Z" />
<glyph unicode="&#xe100;" glyph-name="uniE100" horiz-adv-x="128" d="M64 -54Q128 -54 128 -91V-212Q107 -191 64 -191T0 -212V-91Q0 -54 64 -54Z" />
<glyph unicode="&#xe103;" glyph-name="uniE103" horiz-adv-x="128" d="M64 -304Q128 -304 128 -341V-462Q107 -441 64 -441T0 -462V-341Q0 -304 64 -304Z" />
<glyph unicode="&#xe104;" glyph-name="uniE104" horiz-adv-x="128" d="M62 -179Q126 -179 126 -216V-337Q105 -316 62 -316T-2 -337V-216Q-2 -179 62 -179Z" />
<glyph unicode="&#xe105;" glyph-name="uniE105" horiz-adv-x="128" d="M64 -54Q128 -54 128 -91V-212Q107 -191 64 -191T0 -212V-91Q0 -54 64 -54Z" />
<glyph unicode="&#xe106;" glyph-name="uniE106" horiz-adv-x="128" d="M64 71Q128 71 128 34V-87Q107 -66 64 -66T0 -87V34Q0 71 64 71Z" />
<glyph unicode="&#xe107;" glyph-name="uniE107" horiz-adv-x="128" d="M64 196Q128 196 128 159V38Q107 59 64 59T0 38V159Q0 196 64 196Z" />
<glyph unicode="&#xe108;" glyph-name="uniE108" horiz-adv-x="128" d="M64 321Q128 321 128 284V163Q107 184 64 184T0 163V284Q0 321 64 321Z" />
<glyph unicode="&#xe109;" glyph-name="uniE109" horiz-adv-x="128" d="M64 446Q128 446 128 409V288Q107 309 64 309T0 288V409Q0 446 64 446Z" />
<glyph unicode="&#xe10a;" glyph-name="uniE10A" horiz-adv-x="128" d="M64 571Q128 571 128 534V413Q107 434 64 434T0 413V534Q0 571 64 571Z" />
<glyph unicode="&#xe10b;" glyph-name="uniE10B" horiz-adv-x="128" d="M64 696Q128 696 128 659V538Q107 559 64 559T0 538V659Q0 696 64 696Z" />
<glyph unicode="&#xe10c;" glyph-name="uniE10C" horiz-adv-x="128" d="M64 821Q128 821 128 784V663Q107 684 64 684T0 663V784Q0 821 64 821Z" />
<glyph unicode="&#xe10d;" glyph-name="uniE10D" horiz-adv-x="128" d="M64 946Q128 946 128 909V788Q107 809 64 809T0 788V909Q0 946 64 946Z" />
<glyph unicode="&#xe10e;" glyph-name="uniE10E" horiz-adv-x="128" d="M64 1071Q128 1071 128 1034V913Q107 934 64 934T0 913V1034Q0 1071 64 1071Z" />
<glyph unicode="&#xe10f;" glyph-name="uniE10F" horiz-adv-x="128" d="M64 1196Q128 1196 128 1159V1038Q107 1059 64 1059T0 1038V1159Q0 1196 64 1196Z" />
<glyph unicode="&#xe110;" glyph-name="diamond" horiz-adv-x="128" d="M64 -36L128 -133L64 -229L0 -133L64 -36Z" />
<glyph unicode="&#xe113;" glyph-name="uniE113" horiz-adv-x="128" d="M64 -286L128 -383L64 -479L0 -383L64 -286Z" />
<glyph unicode="&#xe114;" glyph-name="uniE114" horiz-adv-x="128" d="M64 -161L128 -258L64 -354L0 -258L64 -161Z" />
<glyph unicode="&#xe115;" glyph-name="uniE115" horiz-adv-x="128" d="M64 -36L128 -133L64 -229L0 -133L64 -36Z" />
<glyph unicode="&#xe116;" glyph-name="uniE116" horiz-adv-x="128" d="M64 89L128 -8L64 -104L0 -8L64 89Z" />
<glyph unicode="&#xe117;" glyph-name="uniE117" horiz-adv-x="128" d="M64 214L128 117L64 21L0 117L64 214Z" />
<glyph unicode="&#xe118;" glyph-name="uniE118" horiz-adv-x="128" d="M64 339L128 242L64 146L0 242L64 339Z" />
<glyph unicode="&#xe119;" glyph-name="uniE119" horiz-adv-x="128" d="M64 464L128 367L64 271L0 367L64 464Z" />
<glyph unicode="&#xe11a;" glyph-name="uniE11A" horiz-adv-x="128" d="M64 589L128 492L64 396L0 492L64 589Z" />
<glyph unicode="&#xe11b;" glyph-name="uniE11B" horiz-adv-x="128" d="M64 714L128 617L64 521L0 617L64 714Z" />
<glyph unicode="&#xe11c;" glyph-name="uniE11C" horiz-adv-x="128" d="M64 839L128 742L64 646L0 742L64 839Z" />
<glyph unicode="&#xe11d;" glyph-name="uniE11D" horiz-adv-x="128" d="M64 964L128 867L64 771L0 867L64 964Z" />
<glyph unicode="&#xe11e;" glyph-name="uniE11E" horiz-adv-x="128" d="M64 1089L128 992L64 896L0 992L64 1089Z" />
<glyph unicode="&#xe11f;" glyph-name="uniE11F" horiz-adv-x="128" d="M64 1214L128 1117L64 1021L0 1117L64 1214Z" />
<glyph unicode="&#xe120;" glyph-name="uniE120" horiz-adv-x="128" d="M119 -628Q114 -628 114 -592V-459Q95 -442 64 -442Q20 -442 0 -462V-341Q0 -304 64 -304Q128 -304 128 -341V-612Q128 -626 119 -628Z" />
<glyph unicode="&#xe121;" glyph-name="uniE121" horiz-adv-x="128" d="M119 -597Q114 -597 114 -561V-334Q95 -317 64 -317Q20 -317 0 -337V-216Q0 -179 64 -179Q128 -179 128 -216V-581Q128 -594 119 -597Z" />
<glyph unicode="&#xe123;" glyph-name="uniE123" horiz-adv-x="128" d="M119 -628Q114 -628 114 -592V-459Q95 -442 64 -442Q20 -442 0 -462V-341Q0 -304 64 -304Q128 -304 128 -341V-612Q128 -626 119 -628Z" />
<glyph unicode="&#xe124;" glyph-name="uniE124" horiz-adv-x="128" d="M119 -597Q114 -597 114 -561V-334Q95 -317 64 -317Q20 -317 0 -337V-216Q0 -179 64 -179Q128 -179 128 -216V-581Q128 -594 119 -597Z" />
<glyph unicode="&#xe125;" glyph-name="uniE125" horiz-adv-x="128" d="M119 -378Q114 -378 114 -342V-209Q95 -192 64 -192Q20 -192 0 -212V-91Q0 -54 64 -54Q128 -54 128 -91V-362Q128 -376 119 -378Z" />
<glyph unicode="&#xe126;" glyph-name="uniE126" horiz-adv-x="128" d="M119 -347Q114 -347 114 -311V-84Q95 -67 64 -67Q20 -67 0 -87V34Q0 71 64 71Q128 71 128 34V-331Q128 -344 119 -347Z" />
<glyph unicode="&#xe127;" glyph-name="uniE127" horiz-adv-x="128" d="M119 -128Q114 -128 114 -92V41Q95 58 64 58Q20 58 0 38V159Q0 196 64 196Q128 196 128 159V-112Q128 -126 119 -128Z" />
<glyph unicode="&#xe128;" glyph-name="uniE128" horiz-adv-x="128" d="M119 -97Q114 -97 114 -61V166Q95 183 64 183Q20 183 0 163V284Q0 321 64 321Q128 321 128 284V-81Q128 -94 119 -97Z" />
<glyph unicode="&#xe129;" glyph-name="uniE129" horiz-adv-x="128" d="M119 122Q114 122 114 158V291Q95 308 64 308Q20 308 0 288V409Q0 446 64 446Q128 446 128 409V138Q128 124 119 122Z" />
<glyph unicode="&#xe12a;" glyph-name="uniE12A" horiz-adv-x="128" d="M119 153Q114 153 114 189V416Q95 433 64 433Q20 433 0 413V534Q0 571 64 571Q128 571 128 534V169Q128 156 119 153Z" />
<glyph unicode="&#xe12b;" glyph-name="uniE12B" horiz-adv-x="128" d="M119 372Q114 372 114 408V541Q95 558 64 558Q20 558 0 538V659Q0 696 64 696Q128 696 128 659V388Q128 374 119 372Z" />
<glyph unicode="&#xe12c;" glyph-name="uniE12C" horiz-adv-x="128" d="M119 403Q114 403 114 439V666Q95 683 64 683Q20 683 0 663V784Q0 821 64 821Q128 821 128 784V419Q128 406 119 403Z" />
<glyph unicode="&#xe12d;" glyph-name="uniE12D" horiz-adv-x="128" d="M119 622Q114 622 114 658V791Q95 808 64 808Q20 808 0 788V909Q0 946 64 946Q128 946 128 909V638Q128 624 119 622Z" />
<glyph unicode="&#xe12e;" glyph-name="uniE12E" horiz-adv-x="128" d="M119 653Q114 653 114 689V916Q95 933 64 933Q20 933 0 913V1034Q0 1071 64 1071Q128 1071 128 1034V669Q128 656 119 653Z" />
<glyph unicode="&#xe12f;" glyph-name="uniE12F" horiz-adv-x="128" d="M119 872Q114 872 114 908V1041Q95 1058 64 1058Q20 1058 0 1038V1159Q0 1196 64 1196Q128 1196 128 1159V888Q128 874 119 872Z" />
<glyph unicode="&#xe130;" glyph-name="uniE130" horiz-adv-x="128" d="M0 -341Q0 -304 64 -304Q128 -304 128 -341V-462Q108 -442 63 -442Q33 -442 14 -459V-592Q14 -628 9 -628Q0 -626 0 -612V-341Z" />
<glyph unicode="&#xe131;" glyph-name="uniE131" horiz-adv-x="128" d="M0 -216Q0 -179 64 -179Q128 -179 128 -216V-337Q108 -317 63 -317Q33 -317 14 -334V-561Q14 -597 9 -597Q0 -594 0 -581V-216Z" />
<glyph unicode="&#xe133;" glyph-name="uniE133" horiz-adv-x="128" d="M0 -341Q0 -304 64 -304Q128 -304 128 -341V-462Q108 -442 63 -442Q33 -442 14 -459V-592Q14 -628 9 -628Q0 -626 0 -612V-341Z" />
<glyph unicode="&#xe134;" glyph-name="uniE134" horiz-adv-x="128" d="M0 -216Q0 -179 64 -179Q128 -179 128 -216V-337Q108 -317 63 -317Q33 -317 14 -334V-467Q14 -503 9 -503Q0 -501 0 -487V-216Z" />
<glyph unicode="&#xe135;" glyph-name="uniE135" horiz-adv-x="128" d="M0 -91Q0 -54 64 -54Q128 -54 128 -91V-212Q108 -192 63 -192Q33 -192 14 -209V-342Q14 -378 9 -378Q0 -376 0 -362V-91Z" />
<glyph unicode="&#xe136;" glyph-name="uniE136" horiz-adv-x="128" d="M0 34Q0 71 64 71Q128 71 128 34V-87Q108 -67 63 -67Q33 -67 14 -84V-217Q14 -253 9 -253Q0 -251 0 -237V34Z" />
<glyph unicode="&#xe137;" glyph-name="uniE137" horiz-adv-x="128" d="M0 159Q0 196 64 196Q128 196 128 159V38Q108 58 63 58Q33 58 14 41V-92Q14 -128 9 -128Q0 -126 0 -112V159Z" />
<glyph unicode="&#xe138;" glyph-name="uniE138" horiz-adv-x="128" d="M0 284Q0 321 64 321Q128 321 128 284V163Q108 183 63 183Q33 183 14 166V-61Q14 -97 9 -97Q0 -94 0 -81V284Z" />
<glyph unicode="&#xe139;" glyph-name="uniE139" horiz-adv-x="128" d="M0 409Q0 446 64 446Q128 446 128 409V288Q108 308 63 308Q33 308 14 291V158Q14 122 9 122Q0 124 0 138V409Z" />
<glyph unicode="&#xe13a;" glyph-name="uniE13A" horiz-adv-x="128" d="M0 534Q0 571 64 571Q128 571 128 534V413Q108 433 63 433Q33 433 14 416V189Q14 153 9 153Q0 156 0 169V534Z" />
<glyph unicode="&#xe13b;" glyph-name="uniE13B" horiz-adv-x="128" d="M0 659Q0 696 64 696Q128 696 128 659V538Q108 558 63 558Q33 558 14 541V408Q14 372 9 372Q0 374 0 388V659Z" />
<glyph unicode="&#xe13c;" glyph-name="uniE13C" horiz-adv-x="128" d="M0 784Q0 821 64 821Q128 821 128 784V663Q108 683 63 683Q33 683 14 666V439Q14 403 9 403Q0 406 0 419V784Z" />
<glyph unicode="&#xe13d;" glyph-name="uniE13D" horiz-adv-x="128" d="M0 909Q0 946 64 946Q128 946 128 909V788Q108 808 63 808Q33 808 14 791V658Q14 622 9 622Q0 624 0 638V909Z" />
<glyph unicode="&#xe13e;" glyph-name="uniE13E" horiz-adv-x="128" d="M0 1034Q0 1071 64 1071Q128 1071 128 1034V913Q108 933 63 933Q33 933 14 916V689Q14 653 9 653Q0 656 0 669V1034Z" />
<glyph unicode="&#xe13f;" glyph-name="uniE13F" horiz-adv-x="128" d="M0 1159Q0 1196 64 1196Q128 1196 128 1159V1038Q108 1058 63 1058Q33 1058 14 1041V908Q14 872 9 872Q0 874 0 888V1159Z" />
<glyph unicode="&#xe140;" glyph-name="uniE140" horiz-adv-x="128" d="M0 -186V-76Q11 -116 28 -116Q43 -116 46 -56Q53 -80 58 -89T74 -99T90 -44Q101 -88 109 -88Q120 -88 128 -27V-155Q128 -189 116 -189Q107 -189 99 -166Q95 -208 76 -208Q61 -208 44 -180Q35
-219 21 -219Q11 -219 6 -209T0 -186Z" />
<glyph unicode="&#xe143;" glyph-name="uniE143" horiz-adv-x="128" d="M0 -436V-326Q11 -366 28 -366Q43 -366 46 -306Q53 -330 58 -339T74 -349T90 -294Q101 -338 109 -338Q120 -338 128 -277V-405Q128 -439 116 -439Q107 -439 99 -416Q95 -458 76 -458Q61 -458
44 -430Q35 -469 21 -469Q11 -469 6 -459T0 -436Z" />
<glyph unicode="&#xe144;" glyph-name="uniE144" horiz-adv-x="128" d="M0 -311V-201Q11 -241 28 -241Q43 -241 46 -181Q53 -205 58 -214T74 -224T90 -169Q101 -213 109 -213Q120 -213 128 -152V-280Q128 -314 116 -314Q107 -314 99 -291Q95 -333 76 -333Q61 -333
44 -305Q35 -344 21 -344Q11 -344 6 -334T0 -311Z" />
<glyph unicode="&#xe145;" glyph-name="uniE145" horiz-adv-x="128" d="M0 -186V-76Q11 -116 28 -116Q43 -116 46 -56Q53 -80 58 -89T74 -99T90 -44Q101 -88 109 -88Q120 -88 128 -27V-155Q128 -189 116 -189Q107 -189 99 -166Q95 -208 76 -208Q61 -208 44 -180Q35
-219 21 -219Q11 -219 6 -209T0 -186Z" />
<glyph unicode="&#xe146;" glyph-name="uniE146" horiz-adv-x="128" d="M0 -61V49Q11 9 28 9Q43 9 46 69Q53 45 58 36T74 26T90 81Q101 37 109 37Q120 37 128 98V-30Q128 -64 116 -64Q107 -64 99 -41Q95 -83 76 -83Q61 -83 44 -55Q35 -94 21 -94Q11 -94 6 -84T0 -61Z" />
<glyph unicode="&#xe147;" glyph-name="uniE147" horiz-adv-x="128" d="M0 64V174Q11 134 28 134Q43 134 46 194Q53 170 58 161T74 151T90 206Q101 162 109 162Q120 162 128 223V95Q128 61 116 61Q107 61 99 84Q95 42 76 42Q61 42 44 70Q35 31 21 31Q11 31 6 41T0 64Z" />
<glyph unicode="&#xe148;" glyph-name="uniE148" horiz-adv-x="128" d="M0 189V299Q11 259 28 259Q43 259 46 319Q53 295 58 286T74 276T90 331Q101 287 109 287Q120 287 128 348V220Q128 186 116 186Q107 186 99 209Q95 167 76 167Q61 167 44 195Q35 156 21 156Q11
156 6 166T0 189Z" />
<glyph unicode="&#xe149;" glyph-name="uniE149" horiz-adv-x="128" d="M0 314V424Q11 384 28 384Q43 384 46 444Q53 420 58 411T74 401T90 456Q101 412 109 412Q120 412 128 473V345Q128 311 116 311Q107 311 99 334Q95 292 76 292Q61 292 44 320Q35 281 21 281Q11
281 6 291T0 314Z" />
<glyph unicode="&#xe14a;" glyph-name="uniE14A" horiz-adv-x="128" d="M0 439V549Q11 509 28 509Q43 509 46 569Q53 545 58 536T74 526T90 581Q101 537 109 537Q120 537 128 598V470Q128 436 116 436Q107 436 99 459Q95 417 76 417Q61 417 44 445Q35 406 21 406Q11
406 6 416T0 439Z" />
<glyph unicode="&#xe14b;" glyph-name="uniE14B" horiz-adv-x="128" d="M0 564V674Q11 634 28 634Q43 634 46 694Q53 670 58 661T74 651T90 706Q101 662 109 662Q120 662 128 723V595Q128 561 116 561Q107 561 99 584Q95 542 76 542Q61 542 44 570Q35 531 21 531Q11
531 6 541T0 564Z" />
<glyph unicode="&#xe14c;" glyph-name="uniE14C" horiz-adv-x="128" d="M0 689V799Q11 759 28 759Q43 759 46 819Q53 795 58 786T74 776T90 831Q101 787 109 787Q120 787 128 848V720Q128 686 116 686Q107 686 99 709Q95 667 76 667Q61 667 44 695Q35 656 21 656Q11
656 6 666T0 689Z" />
<glyph unicode="&#xe14d;" glyph-name="uniE14D" horiz-adv-x="128" d="M0 814V924Q11 884 28 884Q43 884 46 944Q53 920 58 911T74 901T90 956Q101 912 109 912Q120 912 128 973V845Q128 811 116 811Q107 811 99 834Q95 792 76 792Q61 792 44 820Q35 781 21 781Q11
781 6 791T0 814Z" />
<glyph unicode="&#xe14e;" glyph-name="uniE14E" horiz-adv-x="128" d="M0 939V1049Q11 1009 28 1009Q43 1009 46 1069Q53 1045 58 1036T74 1026T90 1081Q101 1037 109 1037Q120 1037 128 1098V970Q128 936 116 936Q107 936 99 959Q95 917 76 917Q61 917 44 945Q35
906 21 906Q11 906 6 916T0 939Z" />
<glyph unicode="&#xe14f;" glyph-name="uniE14F" horiz-adv-x="128" d="M0 1064V1174Q11 1134 28 1134Q43 1134 46 1194Q53 1170 58 1161T74 1151T90 1206Q101 1162 109 1162Q120 1162 128 1223V1095Q128 1061 116 1061Q107 1061 99 1084Q95 1042 76 1042Q61 1042
44 1070Q35 1031 21 1031Q11 1031 6 1041T0 1064Z" />
<glyph unicode="&#xe153;" glyph-name="uniE153" horiz-adv-x="128" d="M61 -578Q51 -578 38 -578T22 -578Q8 -578 4 -577T0 -572V-467Q0 -460 5 -460H8Q13 -461 58 -461Q63 -461 71 -461T83 -461Q102 -461 109 -459T116 -446H128V-571Q128 -576 122 -577T99 -578Q95
-578 83 -578T61 -578Z" />
<glyph unicode="&#xe154;" glyph-name="uniE154" horiz-adv-x="128" d="M61 -453Q51 -453 38 -453T22 -453Q8 -453 4 -452T0 -447V-342Q0 -335 5 -335H8Q13 -336 58 -336Q63 -336 71 -336T83 -336Q102 -336 109 -334T116 -321H128V-446Q128 -451 122 -452T99 -453Q95
-453 83 -453T61 -453Z" />
<glyph unicode="&#xe155;" glyph-name="uniE155" horiz-adv-x="128" d="M61 -328Q51 -328 38 -328T22 -328Q8 -328 4 -327T0 -322V-217Q0 -210 5 -210H8Q13 -211 58 -211Q63 -211 71 -211T83 -211Q102 -211 109 -209T116 -196H128V-321Q128 -326 122 -327T99 -328Q95
-328 83 -328T61 -328Z" />
<glyph unicode="&#xe156;" glyph-name="uniE156" horiz-adv-x="128" d="M61 -203Q51 -203 38 -203T22 -203Q8 -203 4 -202T0 -197V-92Q0 -85 5 -85H8Q13 -86 58 -86Q63 -86 71 -86T83 -86Q102 -86 109 -84T116 -71H128V-196Q128 -201 122 -202T99 -203Q95 -203
83 -203T61 -203Z" />
<glyph unicode="&#xe157;" glyph-name="uniE157" horiz-adv-x="128" d="M61 -78Q51 -78 38 -78T22 -78Q8 -78 4 -77T0 -72V33Q0 40 5 40H8Q13 39 58 39Q63 39 71 39T83 39Q102 39 109 41T116 54H128V-71Q128 -76 122 -77T99 -78Q95 -78 83 -78T61 -78Z" />
<glyph unicode="&#xe158;" glyph-name="uniE158" horiz-adv-x="128" d="M61 47Q51 47 38 47T22 47Q8 47 4 48T0 53V158Q0 165 5 165H8Q13 164 58 164Q63 164 71 164T83 164Q102 164 109 166T116 179H128V54Q128 49 122 48T99 47Q95 47 83 47T61 47Z" />
<glyph unicode="&#xe159;" glyph-name="uniE159" horiz-adv-x="128" d="M61 172Q51 172 38 172T22 172Q8 172 4 173T0 178V283Q0 290 5 290H8Q13 289 58 289Q63 289 71 289T83 289Q102 289 109 291T116 304H128V179Q128 174 122 173T99 172Q95 172 83 172T61 172Z" />
<glyph unicode="&#xe15a;" glyph-name="uniE15A" horiz-adv-x="128" d="M61 297Q51 297 38 297T22 297Q8 297 4 298T0 303V408Q0 415 5 415H8Q13 414 58 414Q63 414 71 414T83 414Q102 414 109 416T116 429H128V304Q128 299 122 298T99 297Q95 297 83 297T61 297Z" />
<glyph unicode="&#xe15b;" glyph-name="uniE15B" horiz-adv-x="128" d="M61 422Q51 422 38 422T22 422Q8 422 4 423T0 428V533Q0 540 5 540H8Q13 539 58 539Q63 539 71 539T83 539Q102 539 109 541T116 554H128V429Q128 424 122 423T99 422Q95 422 83 422T61 422Z" />
<glyph unicode="&#xe15c;" glyph-name="uniE15C" horiz-adv-x="128" d="M61 547Q51 547 38 547T22 547Q8 547 4 548T0 553V658Q0 665 5 665H8Q13 664 58 664Q63 664 71 664T83 664Q102 664 109 666T116 679H128V554Q128 549 122 548T99 547Q95 547 83 547T61 547Z" />
<glyph unicode="&#xe15d;" glyph-name="uniE15D" horiz-adv-x="128" d="M61 672Q51 672 38 672T22 672Q8 672 4 673T0 678V783Q0 790 5 790H8Q13 789 58 789Q63 789 71 789T83 789Q102 789 109 791T116 804H128V679Q128 674 122 673T99 672Q95 672 83 672T61 672Z" />
<glyph unicode="&#xe15e;" glyph-name="uniE15E" horiz-adv-x="128" d="M61 797Q51 797 38 797T22 797Q8 797 4 798T0 803V908Q0 915 5 915H8Q13 914 58 914Q63 914 71 914T83 914Q102 914 109 916T116 929H128V804Q128 799 122 798T99 797Q95 797 83 797T61 797Z" />
<glyph unicode="&#xe15f;" glyph-name="uniE15F" horiz-adv-x="128" d="M61 922Q51 922 38 922T22 922Q8 922 4 923T0 928V1033Q0 1040 5 1040H8Q13 1039 58 1039Q63 1039 71 1039T83 1039Q102 1039 109 1041T116 1054H128V929Q128 924 122 923T99 922Q95 922
83 922T61 922Z" />
<glyph unicode="&#xe163;" glyph-name="uniE163" horiz-adv-x="0" d="M-12 -465Q-12 -442 -23 -433T-59 -423Q-94 -423 -117 -439V-342Q-117 -304 -59 -304Q0 -304 0 -342V-465H-12Z" />
<glyph unicode="&#xe164;" glyph-name="uniE164" horiz-adv-x="0" d="M-12 -340Q-12 -317 -23 -308T-59 -298Q-94 -298 -117 -314V-217Q-117 -179 -59 -179Q0 -179 0 -217V-340H-12Z" />
<glyph unicode="&#xe165;" glyph-name="uniE165" horiz-adv-x="0" d="M-12 -215Q-12 -192 -23 -183T-59 -173Q-94 -173 -117 -189V-92Q-117 -54 -59 -54Q0 -54 0 -92V-215H-12Z" />
<glyph unicode="&#xe166;" glyph-name="uniE166" horiz-adv-x="0" d="M-12 -90Q-12 -67 -23 -58T-59 -48Q-94 -48 -117 -64V33Q-117 71 -59 71Q0 71 0 33V-90H-12Z" />
<glyph unicode="&#xe167;" glyph-name="uniE167" horiz-adv-x="0" d="M-12 35Q-12 58 -23 67T-59 77Q-94 77 -117 61V158Q-117 196 -59 196Q0 196 0 158V35H-12Z" />
<glyph unicode="&#xe168;" glyph-name="uniE168" horiz-adv-x="0" d="M-12 160Q-12 183 -23 192T-59 202Q-94 202 -117 186V283Q-117 321 -59 321Q0 321 0 283V160H-12Z" />
<glyph unicode="&#xe169;" glyph-name="uniE169" horiz-adv-x="0" d="M-12 285Q-12 308 -23 317T-59 327Q-94 327 -117 311V408Q-117 446 -59 446Q0 446 0 408V285H-12Z" />
<glyph unicode="&#xe16a;" glyph-name="uniE16A" horiz-adv-x="0" d="M-12 410Q-12 433 -23 442T-59 452Q-94 452 -117 436V533Q-117 571 -59 571Q0 571 0 533V410H-12Z" />
<glyph unicode="&#xe16b;" glyph-name="uniE16B" horiz-adv-x="0" d="M-12 535Q-12 558 -23 567T-59 577Q-94 577 -117 561V658Q-117 696 -59 696Q0 696 0 658V535H-12Z" />
<glyph unicode="&#xe16c;" glyph-name="uniE16C" horiz-adv-x="0" d="M-12 660Q-12 683 -23 692T-59 702Q-94 702 -117 686V783Q-117 821 -59 821Q0 821 0 783V660H-12Z" />
<glyph unicode="&#xe16d;" glyph-name="uniE16D" horiz-adv-x="0" d="M-12 785Q-12 808 -23 817T-59 827Q-94 827 -117 811V908Q-117 946 -59 946Q0 946 0 908V785H-12Z" />
<glyph unicode="&#xe16e;" glyph-name="uniE16E" horiz-adv-x="0" d="M-12 910Q-12 933 -23 942T-59 952Q-94 952 -117 936V1033Q-117 1071 -59 1071Q0 1071 0 1033V910H-12Z" />
<glyph unicode="&#xe16f;" glyph-name="uniE16F" horiz-adv-x="0" d="M-12 1035Q-12 1058 -23 1067T-59 1077Q-94 1077 -117 1061V1158Q-117 1196 -59 1196Q0 1196 0 1158V1035H-12Z" />
<glyph unicode="&#xe170;" glyph-name="uniE170" horiz-adv-x="128" d="M61 -203Q51 -203 38 -203T22 -203Q8 -203 4 -202T0 -197V-92Q0 -85 5 -85H8Q13 -86 58 -86Q64 -86 72 -86T83 -86Q100 -86 106 -85T115 -77Q109 -48 69 -48Q34 -48 11 -64V33Q11 71 69 71Q128
71 128 33V-196Q128 -201 122 -202T99 -203Q95 -203 83 -203T61 -203Z" />
<glyph unicode="&#xe173;" glyph-name="uniE173" horiz-adv-x="128" d="M115 -327Q109 -298 69 -298Q34 -298 11 -314V-217Q11 -179 69 -179Q128 -179 128 -217V-446Q128 -451 122 -452T99 -453Q95 -453 83 -453T61 -453Q51 -453 38 -453T22 -453Q8 -453 4 -452T0
-447V-342Q0 -335 5 -335H8Q13 -336 58 -336Q64 -336 72 -336T83 -336Q100 -336 106 -335T115 -327Z" />
<glyph unicode="&#xe174;" glyph-name="uniE174" horiz-adv-x="128" d="M115 -202Q109 -173 69 -173Q34 -173 11 -189V-92Q11 -54 69 -54Q128 -54 128 -92V-321Q128 -326 122 -327T99 -328Q95 -328 83 -328T61 -328Q51 -328 38 -328T22 -328Q8 -328 4 -327T0 -322V-217Q0
-210 5 -210H8Q13 -211 58 -211Q64 -211 72 -211T83 -211Q100 -211 106 -210T115 -202Z" />
<glyph unicode="&#xe175;" glyph-name="uniE175" horiz-adv-x="128" d="M115 -77Q109 -48 69 -48Q34 -48 11 -64V33Q11 71 69 71Q128 71 128 33V-196Q128 -201 122 -202T99 -203Q95 -203 83 -203T61 -203Q51 -203 38 -203T22 -203Q8 -203 4 -202T0 -197V-92Q0
-85 5 -85H8Q13 -86 58 -86Q64 -86 72 -86T83 -86Q100 -86 106 -85T115 -77Z" />
<glyph unicode="&#xe176;" glyph-name="uniE176" horiz-adv-x="128" d="M115 48Q109 77 69 77Q34 77 11 61V158Q11 196 69 196Q128 196 128 158V-71Q128 -76 122 -77T99 -78Q95 -78 83 -78T61 -78Q51 -78 38 -78T22 -78Q8 -78 4 -77T0 -72V33Q0 40 5 40H8Q13 39
58 39Q64 39 72 39T83 39Q100 39 106 40T115 48Z" />
<glyph unicode="&#xe177;" glyph-name="uniE177" horiz-adv-x="128" d="M115 173Q109 202 69 202Q34 202 11 186V283Q11 321 69 321Q128 321 128 283V54Q128 49 122 48T99 47Q95 47 83 47T61 47Q51 47 38 47T22 47Q8 47 4 48T0 53V158Q0 165 5 165H8Q13 164 58
164Q64 164 72 164T83 164Q100 164 106 165T115 173Z" />
<glyph unicode="&#xe178;" glyph-name="uniE178" horiz-adv-x="128" d="M115 298Q109 327 69 327Q34 327 11 311V408Q11 446 69 446Q128 446 128 408V179Q128 174 122 173T99 172Q95 172 83 172T61 172Q51 172 38 172T22 172Q8 172 4 173T0 178V283Q0 290 5 290H8Q13
289 58 289Q64 289 72 289T83 289Q100 289 106 290T115 298Z" />
<glyph unicode="&#xe179;" glyph-name="uniE179" horiz-adv-x="128" d="M115 423Q109 452 69 452Q34 452 11 436V533Q11 571 69 571Q128 571 128 533V304Q128 299 122 298T99 297Q95 297 83 297T61 297Q51 297 38 297T22 297Q8 297 4 298T0 303V408Q0 415 5 415H8Q13
414 58 414Q64 414 72 414T83 414Q100 414 106 415T115 423Z" />
<glyph unicode="&#xe17a;" glyph-name="uniE17A" horiz-adv-x="128" d="M115 548Q109 577 69 577Q34 577 11 561V658Q11 696 69 696Q128 696 128 658V429Q128 424 122 423T99 422Q95 422 83 422T61 422Q51 422 38 422T22 422Q8 422 4 423T0 428V533Q0 540 5 540H8Q13
539 58 539Q64 539 72 539T83 539Q100 539 106 540T115 548Z" />
<glyph unicode="&#xe17b;" glyph-name="uniE17B" horiz-adv-x="128" d="M115 673Q109 702 69 702Q34 702 11 686V783Q11 821 69 821Q128 821 128 783V554Q128 549 122 548T99 547Q95 547 83 547T61 547Q51 547 38 547T22 547Q8 547 4 548T0 553V658Q0 665 5 665H8Q13
664 58 664Q64 664 72 664T83 664Q100 664 106 665T115 673Z" />
<glyph unicode="&#xe17c;" glyph-name="uniE17C" horiz-adv-x="128" d="M115 798Q109 827 69 827Q34 827 11 811V908Q11 946 69 946Q128 946 128 908V679Q128 674 122 673T99 672Q95 672 83 672T61 672Q51 672 38 672T22 672Q8 672 4 673T0 678V783Q0 790 5 790H8Q13
789 58 789Q64 789 72 789T83 789Q100 789 106 790T115 798Z" />
<glyph unicode="&#xe17d;" glyph-name="uniE17D" horiz-adv-x="128" d="M115 923Q109 952 69 952Q34 952 11 936V1033Q11 1071 69 1071Q128 1071 128 1033V804Q128 799 122 798T99 797Q95 797 83 797T61 797Q51 797 38 797T22 797Q8 797 4 798T0 803V908Q0 915
5 915H8Q13 914 58 914Q64 914 72 914T83 914Q100 914 106 915T115 923Z" />
<glyph unicode="&#xe17e;" glyph-name="uniE17E" horiz-adv-x="128" d="M115 1048Q109 1077 69 1077Q34 1077 11 1061V1158Q11 1196 69 1196Q128 1196 128 1158V929Q128 924 122 923T99 922Q95 922 83 922T61 922Q51 922 38 922T22 922Q8 922 4 923T0 928V1033Q0
1040 5 1040H8Q13 1039 58 1039Q63 1039 71 1039T83 1039Q100 1039 106 1040T115 1048Z" />
<glyph unicode="&#xe180;" glyph-name="NameMe.738.1" horiz-adv-x="128" d="M116 35Q116 58 105 67T69 77Q34 77 11 61V158Q11 196 69 196Q128 196 128 158V-196Q128 -201 122 -202T99 -203Q95 -203 83 -203T61 -203Q51 -203 38 -203T22 -203Q8 -203 4 -202T0
-197V-92Q0 -85 5 -85H8Q13 -86 58 -86Q63 -86 71 -86T83 -86Q102 -86 109 -84T116 -71V35Z" />
<glyph unicode="&#xe183;" glyph-name="uniE183" horiz-adv-x="128" d="M61 -453Q51 -453 38 -453T22 -453Q8 -453 4 -452T0 -447V-342Q0 -335 5 -335H8Q13 -336 58 -336Q63 -336 71 -336T83 -336Q102 -336 109 -334T116 -321V-215Q116 -192 105 -183T69 -173Q34
-173 11 -189V-92Q11 -54 69 -54Q128 -54 128 -92V-446Q128 -451 122 -452T99 -453Q95 -453 83 -453T61 -453Z" />
<glyph unicode="&#xe184;" glyph-name="uniE184" horiz-adv-x="128" d="M61 -328Q51 -328 38 -328T22 -328Q8 -328 4 -327T0 -322V-217Q0 -210 5 -210H8Q13 -211 58 -211Q63 -211 71 -211T83 -211Q102 -211 109 -209T116 -196V-90Q116 -67 105 -58T69 -48Q34 -48
11 -64V33Q11 71 69 71Q128 71 128 33V-321Q128 -326 122 -327T99 -328Q95 -328 83 -328T61 -328Z" />
<glyph unicode="&#xe185;" glyph-name="uniE185" horiz-adv-x="128" d="M61 -203Q51 -203 38 -203T22 -203Q8 -203 4 -202T0 -197V-92Q0 -85 5 -85H8Q13 -86 58 -86Q63 -86 71 -86T83 -86Q102 -86 109 -84T116 -71V35Q116 58 105 67T69 77Q34 77 11 61V158Q11
196 69 196Q128 196 128 158V-196Q128 -201 122 -202T99 -203Q95 -203 83 -203T61 -203Z" />
<glyph unicode="&#xe186;" glyph-name="uniE186" horiz-adv-x="128" d="M61 -78Q51 -78 38 -78T22 -78Q8 -78 4 -77T0 -72V33Q0 40 5 40H8Q13 39 58 39Q63 39 71 39T83 39Q102 39 109 41T116 54V160Q116 183 105 192T69 202Q34 202 11 186V283Q11 321 69 321Q128
321 128 283V-71Q128 -76 122 -77T99 -78Q95 -78 83 -78T61 -78Z" />
<glyph unicode="&#xe187;" glyph-name="uniE187" horiz-adv-x="128" d="M61 47Q51 47 38 47T22 47Q8 47 4 48T0 53V158Q0 165 5 165H8Q13 164 58 164Q63 164 71 164T83 164Q102 164 109 166T116 179V285Q116 308 105 317T69 327Q34 327 11 311V408Q11 446 69 446Q128
446 128 408V54Q128 49 122 48T99 47Q95 47 83 47T61 47Z" />
<glyph unicode="&#xe188;" glyph-name="uniE188" horiz-adv-x="128" d="M61 172Q51 172 38 172T22 172Q8 172 4 173T0 178V283Q0 290 5 290H8Q13 289 58 289Q63 289 71 289T83 289Q102 289 109 291T116 304V410Q116 433 105 442T69 452Q34 452 11 436V533Q11 571
69 571Q128 571 128 533V179Q128 174 122 173T99 172Q95 172 83 172T61 172Z" />
<glyph unicode="&#xe189;" glyph-name="uniE189" horiz-adv-x="128" d="M61 297Q51 297 38 297T22 297Q8 297 4 298T0 303V408Q0 415 5 415H8Q13 414 58 414Q63 414 71 414T83 414Q102 414 109 416T116 429V535Q116 558 105 567T69 577Q34 577 11 561V658Q11 696
69 696Q128 696 128 658V304Q128 299 122 298T99 297Q95 297 83 297T61 297Z" />
<glyph unicode="&#xe18a;" glyph-name="uniE18A" horiz-adv-x="128" d="M61 422Q51 422 38 422T22 422Q8 422 4 423T0 428V533Q0 540 5 540H8Q13 539 58 539Q63 539 71 539T83 539Q102 539 109 541T116 554V660Q116 683 105 692T69 702Q34 702 11 686V783Q11 821
69 821Q128 821 128 783V429Q128 424 122 423T99 422Q95 422 83 422T61 422Z" />
<glyph unicode="&#xe18b;" glyph-name="uniE18B" horiz-adv-x="128" d="M61 547Q51 547 38 547T22 547Q8 547 4 548T0 553V658Q0 665 5 665H8Q13 664 58 664Q63 664 71 664T83 664Q102 664 109 666T116 679V785Q116 808 105 817T69 827Q34 827 11 811V908Q11 946
69 946Q128 946 128 908V554Q128 549 122 548T99 547Q95 547 83 547T61 547Z" />
<glyph unicode="&#xe18c;" glyph-name="uniE18C" horiz-adv-x="128" d="M61 672Q51 672 38 672T22 672Q8 672 4 673T0 678V783Q0 790 5 790H8Q13 789 58 789Q63 789 71 789T83 789Q102 789 109 791T116 804V910Q116 933 105 942T69 952Q34 952 11 936V1033Q11
1071 69 1071Q128 1071 128 1033V679Q128 674 122 673T99 672Q95 672 83 672T61 672Z" />
<glyph unicode="&#xe18d;" glyph-name="uniE18D" horiz-adv-x="128" d="M61 797Q51 797 38 797T22 797Q8 797 4 798T0 803V908Q0 915 5 915H8Q13 914 58 914Q63 914 71 914T83 914Q102 914 109 916T116 929V1035Q116 1058 105 1067T69 1077Q34 1077 11 1061V1158Q11
1196 69 1196Q128 1196 128 1158V804Q128 799 122 798T99 797Q95 797 83 797T61 797Z" />
<glyph unicode="&#xe190;" glyph-name="uniE190" horiz-adv-x="128" d="M61 -203Q51 -203 38 -203T22 -203Q8 -203 4 -202T0 -197V-92Q0 -85 5 -85H8Q13 -86 58 -86Q63 -86 71 -86T83 -86Q102 -86 109 -84T116 -71V160Q116 183 105 192T69 202Q34 202 11 186V283Q11
321 69 321Q128 321 128 283V-196Q128 -201 122 -202T99 -203Q95 -203 83 -203T61 -203Z" />
<glyph unicode="&#xe194;" glyph-name="uniE194" horiz-adv-x="128" d="M116 -90Q116 -67 105 -58T69 -48Q34 -48 11 -64V33Q11 71 69 71Q128 71 128 33V-446Q128 -451 122 -452T99 -453Q95 -453 83 -453T61 -453Q51 -453 38 -453T22 -453Q8 -453 4 -452T0 -447V-342Q0
-335 5 -335H8Q13 -336 58 -336Q63 -336 71 -336T83 -336Q102 -336 109 -334T116 -321V-90Z" />
<glyph unicode="&#xe195;" glyph-name="uniE195" horiz-adv-x="128" d="M116 35Q116 58 105 67T69 77Q34 77 11 61V158Q11 196 69 196Q128 196 128 158V-321Q128 -326 122 -327T99 -328Q95 -328 83 -328T61 -328Q51 -328 38 -328T22 -328Q8 -328 4 -327T0 -322V-217Q0
-210 5 -210H8Q13 -211 58 -211Q63 -211 71 -211T83 -211Q102 -211 109 -209T116 -196V35Z" />
<glyph unicode="&#xe196;" glyph-name="uniE196" horiz-adv-x="128" d="M116 160Q116 183 105 192T69 202Q34 202 11 186V283Q11 321 69 321Q128 321 128 283V-196Q128 -201 122 -202T99 -203Q95 -203 83 -203T61 -203Q51 -203 38 -203T22 -203Q8 -203 4 -202T0
-197V-92Q0 -85 5 -85H8Q13 -86 58 -86Q63 -86 71 -86T83 -86Q102 -86 109 -84T116 -71V160Z" />
<glyph unicode="&#xe197;" glyph-name="uniE197" horiz-adv-x="128" d="M116 285Q116 308 105 317T69 327Q34 327 11 311V408Q11 446 69 446Q128 446 128 408V-71Q128 -76 122 -77T99 -78Q95 -78 83 -78T61 -78Q51 -78 38 -78T22 -78Q8 -78 4 -77T0 -72V33Q0 40
5 40H8Q13 39 58 39Q63 39 71 39T83 39Q102 39 109 41T116 54V285Z" />
<glyph unicode="&#xe198;" glyph-name="uniE198" horiz-adv-x="128" d="M116 410Q116 433 105 442T69 452Q34 452 11 436V533Q11 571 69 571Q128 571 128 533V54Q128 49 122 48T99 47Q95 47 83 47T61 47Q51 47 38 47T22 47Q8 47 4 48T0 53V158Q0 165 5 165H8Q13
164 58 164Q63 164 71 164T83 164Q102 164 109 166T116 179V410Z" />
<glyph unicode="&#xe199;" glyph-name="uniE199" horiz-adv-x="128" d="M116 535Q116 558 105 567T69 577Q34 577 11 561V658Q11 696 69 696Q128 696 128 658V179Q128 174 122 173T99 172Q95 172 83 172T61 172Q51 172 38 172T22 172Q8 172 4 173T0 178V283Q0
290 5 290H8Q13 289 58 289Q63 289 71 289T83 289Q102 289 109 291T116 304V535Z" />
<glyph unicode="&#xe19a;" glyph-name="uniE19A" horiz-adv-x="128" d="M116 660Q116 683 105 692T69 702Q34 702 11 686V783Q11 821 69 821Q128 821 128 783V304Q128 299 122 298T99 297Q95 297 83 297T61 297Q51 297 38 297T22 297Q8 297 4 298T0 303V408Q0
415 5 415H8Q13 414 58 414Q63 414 71 414T83 414Q102 414 109 416T116 429V660Z" />
<glyph unicode="&#xe19b;" glyph-name="uniE19B" horiz-adv-x="128" d="M116 785Q116 808 105 817T69 827Q34 827 11 811V908Q11 946 69 946Q128 946 128 908V429Q128 424 122 423T99 422Q95 422 83 422T61 422Q51 422 38 422T22 422Q8 422 4 423T0 428V533Q0
540 5 540H8Q13 539 58 539Q63 539 71 539T83 539Q102 539 109 541T116 554V785Z" />
<glyph unicode="&#xe19c;" glyph-name="uniE19C" horiz-adv-x="128" d="M116 910Q116 933 105 942T69 952Q34 952 11 936V1033Q11 1071 69 1071Q128 1071 128 1033V554Q128 549 122 548T99 547Q95 547 83 547T61 547Q51 547 38 547T22 547Q8 547 4 548T0 553V658Q0
665 5 665H8Q13 664 58 664Q63 664 71 664T83 664Q102 664 109 666T116 679V910Z" />
<glyph unicode="&#xe19d;" glyph-name="uniE19D" horiz-adv-x="128" d="M116 1035Q116 1058 105 1067T69 1077Q34 1077 11 1061V1158Q11 1196 69 1196Q128 1196 128 1158V679Q128 674 122 673T99 672Q95 672 83 672T61 672Q51 672 38 672T22 672Q8 672 4 673T0
678V783Q0 790 5 790H8Q13 789 58 789Q63 789 71 789T83 789Q102 789 109 791T116 804V1035Z" />
<glyph unicode="&#xe1a0;" glyph-name="uniE1A0" horiz-adv-x="128" d="M116 285Q116 308 105 317T69 327Q34 327 11 311V408Q11 446 69 446Q128 446 128 408V-196Q128 -201 122 -202T99 -203Q95 -203 83 -203T61 -203Q51 -203 38 -203T22 -203Q8 -203 4 -202T0
-197V-92Q0 -85 5 -85H8Q13 -86 58 -86Q63 -86 71 -86T83 -86Q102 -86 109 -84T116 -71V285Z" />
<glyph unicode="&#xe1a3;" glyph-name="uniE1A3" horiz-adv-x="128" d="M61 -453Q51 -453 38 -453T22 -453Q8 -453 4 -452T0 -447V-342Q0 -335 5 -335H8Q13 -336 58 -336Q63 -336 71 -336T83 -336Q102 -336 109 -334T116 -321V35Q116 58 105 67T69 77Q34 77 11
61V158Q11 196 69 196Q128 196 128 158V-446Q128 -451 122 -452T99 -453Q95 -453 83 -453T61 -453Z" />
<glyph unicode="&#xe1a4;" glyph-name="uniE1A4" horiz-adv-x="128" d="M61 -328Q51 -328 38 -328T22 -328Q8 -328 4 -327T0 -322V-217Q0 -210 5 -210H8Q13 -211 58 -211Q63 -211 71 -211T83 -211Q102 -211 109 -209T116 -196V160Q116 183 105 192T69 202Q34 202
11 186V283Q11 321 69 321Q128 321 128 283V-321Q128 -326 122 -327T99 -328Q95 -328 83 -328T61 -328Z" />
<glyph unicode="&#xe1a5;" glyph-name="uniE1A5" horiz-adv-x="128" d="M61 -203Q51 -203 38 -203T22 -203Q8 -203 4 -202T0 -197V-92Q0 -85 5 -85H8Q13 -86 58 -86Q63 -86 71 -86T83 -86Q102 -86 109 -84T116 -71V285Q116 308 105 317T69 327Q34 327 11 311V408Q11
446 69 446Q128 446 128 408V-196Q128 -201 122 -202T99 -203Q95 -203 83 -203T61 -203Z" />
<glyph unicode="&#xe1a6;" glyph-name="uniE1A6" horiz-adv-x="128" d="M61 -78Q51 -78 38 -78T22 -78Q8 -78 4 -77T0 -72V33Q0 40 5 40H8Q13 39 58 39Q63 39 71 39T83 39Q102 39 109 41T116 54V410Q116 433 105 442T69 452Q34 452 11 436V533Q11 571 69 571Q128
571 128 533V-71Q128 -76 122 -77T99 -78Q95 -78 83 -78T61 -78Z" />
<glyph unicode="&#xe1a7;" glyph-name="uniE1A7" horiz-adv-x="128" d="M61 47Q51 47 38 47T22 47Q8 47 4 48T0 53V158Q0 165 5 165H8Q13 164 58 164Q63 164 71 164T83 164Q102 164 109 166T116 179V535Q116 558 105 567T69 577Q34 577 11 561V658Q11 696 69 696Q128
696 128 658V54Q128 49 122 48T99 47Q95 47 83 47T61 47Z" />
<glyph unicode="&#xe1a8;" glyph-name="uniE1A8" horiz-adv-x="128" d="M61 172Q51 172 38 172T22 172Q8 172 4 173T0 178V283Q0 290 5 290H8Q13 289 58 289Q63 289 71 289T83 289Q102 289 109 291T116 304V660Q116 683 105 692T69 702Q34 702 11 686V783Q11 821
69 821Q128 821 128 783V179Q128 174 122 173T99 172Q95 172 83 172T61 172Z" />
<glyph unicode="&#xe1a9;" glyph-name="uniE1A9" horiz-adv-x="128" d="M61 297Q51 297 38 297T22 297Q8 297 4 298T0 303V408Q0 415 5 415H8Q13 414 58 414Q63 414 71 414T83 414Q102 414 109 416T116 429V785Q116 808 105 817T69 827Q34 827 11 811V908Q11 946
69 946Q128 946 128 908V304Q128 299 122 298T99 297Q95 297 83 297T61 297Z" />
<glyph unicode="&#xe1aa;" glyph-name="uniE1AA" horiz-adv-x="128" d="M61 422Q51 422 38 422T22 422Q8 422 4 423T0 428V533Q0 540 5 540H8Q13 539 58 539Q63 539 71 539T83 539Q102 539 109 541T116 554V910Q116 933 105 942T69 952Q34 952 11 936V1033Q11
1071 69 1071Q128 1071 128 1033V429Q128 424 122 423T99 422Q95 422 83 422T61 422Z" />
<glyph unicode="&#xe1ab;" glyph-name="uniE1AB" horiz-adv-x="128" d="M61 547Q51 547 38 547T22 547Q8 547 4 548T0 553V658Q0 665 5 665H8Q13 664 58 664Q63 664 71 664T83 664Q102 664 109 666T116 679V1035Q116 1058 105 1067T69 1077Q34 1077 11 1061V1158Q11
1196 69 1196Q128 1196 128 1158V554Q128 549 122 548T99 547Q95 547 83 547T61 547Z" />
<glyph unicode="&#xe1b0;" glyph-name="uniE1B0" horiz-adv-x="128" d="M98 -78Q128 -78 128 -39V-175Q128 -214 98 -214Q90 -214 65 -201T30 -188Q0 -188 0 -228V-92Q0 -53 30 -53Q39 -53 64 -65T98 -78Z" />
<glyph unicode="&#xe1b3;" glyph-name="uniE1B3" horiz-adv-x="128" d="M98 -328Q128 -328 128 -289V-425Q128 -464 98 -464Q90 -464 65 -451T30 -438Q0 -438 0 -478V-342Q0 -303 30 -303Q39 -303 64 -315T98 -328Z" />
<glyph unicode="&#xe1b4;" glyph-name="uniE1B4" horiz-adv-x="128" d="M98 -203Q128 -203 128 -164V-300Q128 -339 98 -339Q90 -339 65 -326T30 -313Q0 -313 0 -353V-217Q0 -178 30 -178Q39 -178 64 -190T98 -203Z" />
<glyph unicode="&#xe1b5;" glyph-name="uniE1B5" horiz-adv-x="128" d="M98 -78Q128 -78 128 -39V-175Q128 -214 98 -214Q90 -214 65 -201T30 -188Q0 -188 0 -228V-92Q0 -53 30 -53Q39 -53 64 -65T98 -78Z" />
<glyph unicode="&#xe1b6;" glyph-name="uniE1B6" horiz-adv-x="128" d="M98 47Q128 47 128 86V-50Q128 -89 98 -89Q90 -89 65 -76T30 -63Q0 -63 0 -103V33Q0 72 30 72Q39 72 64 60T98 47Z" />
<glyph unicode="&#xe1b7;" glyph-name="uniE1B7" horiz-adv-x="128" d="M98 172Q128 172 128 211V75Q128 36 98 36Q90 36 65 49T30 62Q0 62 0 22V158Q0 197 30 197Q39 197 64 185T98 172Z" />
<glyph unicode="&#xe1b8;" glyph-name="uniE1B8" horiz-adv-x="128" d="M98 297Q128 297 128 336V200Q128 161 98 161Q90 161 65 174T30 187Q0 187 0 147V283Q0 322 30 322Q39 322 64 310T98 297Z" />
<glyph unicode="&#xe1b9;" glyph-name="uniE1B9" horiz-adv-x="128" d="M98 422Q128 422 128 461V325Q128 286 98 286Q90 286 65 299T30 312Q0 312 0 272V408Q0 447 30 447Q39 447 64 435T98 422Z" />
<glyph unicode="&#xe1ba;" glyph-name="uniE1BA" horiz-adv-x="128" d="M98 547Q128 547 128 586V450Q128 411 98 411Q90 411 65 424T30 437Q0 437 0 397V533Q0 572 30 572Q39 572 64 560T98 547Z" />
<glyph unicode="&#xe1bb;" glyph-name="uniE1BB" horiz-adv-x="128" d="M98 672Q128 672 128 711V575Q128 536 98 536Q90 536 65 549T30 562Q0 562 0 522V658Q0 697 30 697Q39 697 64 685T98 672Z" />
<glyph unicode="&#xe1bc;" glyph-name="uniE1BC" horiz-adv-x="128" d="M98 797Q128 797 128 836V700Q128 661 98 661Q90 661 65 674T30 687Q0 687 0 647V783Q0 822 30 822Q39 822 64 810T98 797Z" />
<glyph unicode="&#xe1bd;" glyph-name="uniE1BD" horiz-adv-x="128" d="M98 922Q128 922 128 961V825Q128 786 98 786Q90 786 65 799T30 812Q0 812 0 772V908Q0 947 30 947Q39 947 64 935T98 922Z" />
<glyph unicode="&#xe1be;" glyph-name="uniE1BE" horiz-adv-x="128" d="M98 1047Q128 1047 128 1086V950Q128 911 98 911Q90 911 65 924T30 937Q0 937 0 897V1033Q0 1072 30 1072Q39 1072 64 1060T98 1047Z" />
<glyph unicode="&#xe1bf;" glyph-name="uniE1BF" horiz-adv-x="128" d="M98 1172Q128 1172 128 1211V1075Q128 1036 98 1036Q90 1036 65 1049T30 1062Q0 1062 0 1022V1158Q0 1197 30 1197Q39 1197 64 1185T98 1172Z" />
<glyph unicode="&#xe1c0;" glyph-name="uniE1C0" horiz-adv-x="128" d="M30 -215Q0 -215 0 -176V-40Q0 -79 30 -79Q42 -79 64 -67T98 -54Q128 -54 128 -93V-229Q128 -189 98 -189Q87 -189 64 -202T30 -215Z" />
<glyph unicode="&#xe1c3;" glyph-name="uniE1C3" horiz-adv-x="128" d="M30 -465Q0 -465 0 -426V-290Q0 -329 30 -329Q42 -329 64 -317T98 -304Q128 -304 128 -343V-479Q128 -439 98 -439Q87 -439 64 -452T30 -465Z" />
<glyph unicode="&#xe1c4;" glyph-name="uniE1C4" horiz-adv-x="128" d="M30 -340Q0 -340 0 -301V-165Q0 -204 30 -204Q42 -204 64 -192T98 -179Q128 -179 128 -218V-354Q128 -314 98 -314Q87 -314 64 -327T30 -340Z" />
<glyph unicode="&#xe1c5;" glyph-name="uniE1C5" horiz-adv-x="128" d="M30 -215Q0 -215 0 -176V-40Q0 -79 30 -79Q42 -79 64 -67T98 -54Q128 -54 128 -93V-229Q128 -189 98 -189Q87 -189 64 -202T30 -215Z" />
<glyph unicode="&#xe1c6;" glyph-name="uniE1C6" horiz-adv-x="128" d="M30 -90Q0 -90 0 -51V85Q0 46 30 46Q42 46 64 58T98 71Q128 71 128 32V-104Q128 -64 98 -64Q87 -64 64 -77T30 -90Z" />
<glyph unicode="&#xe1c7;" glyph-name="uniE1C7" horiz-adv-x="128" d="M30 35Q0 35 0 74V210Q0 171 30 171Q42 171 64 183T98 196Q128 196 128 157V21Q128 61 98 61Q87 61 64 48T30 35Z" />
<glyph unicode="&#xe1c8;" glyph-name="uniE1C8" horiz-adv-x="128" d="M30 160Q0 160 0 199V335Q0 296 30 296Q42 296 64 308T98 321Q128 321 128 282V146Q128 186 98 186Q87 186 64 173T30 160Z" />
<glyph unicode="&#xe1c9;" glyph-name="uniE1C9" horiz-adv-x="128" d="M30 285Q0 285 0 324V460Q0 421 30 421Q42 421 64 433T98 446Q128 446 128 407V271Q128 311 98 311Q87 311 64 298T30 285Z" />
<glyph unicode="&#xe1ca;" glyph-name="uniE1CA" horiz-adv-x="128" d="M30 410Q0 410 0 449V585Q0 546 30 546Q42 546 64 558T98 571Q128 571 128 532V396Q128 436 98 436Q87 436 64 423T30 410Z" />
<glyph unicode="&#xe1cb;" glyph-name="uniE1CB" horiz-adv-x="128" d="M30 535Q0 535 0 574V710Q0 671 30 671Q42 671 64 683T98 696Q128 696 128 657V521Q128 561 98 561Q87 561 64 548T30 535Z" />
<glyph unicode="&#xe1cc;" glyph-name="uniE1CC" horiz-adv-x="128" d="M30 660Q0 660 0 699V835Q0 796 30 796Q42 796 64 808T98 821Q128 821 128 782V646Q128 686 98 686Q87 686 64 673T30 660Z" />
<glyph unicode="&#xe1cd;" glyph-name="uniE1CD" horiz-adv-x="128" d="M30 785Q0 785 0 824V960Q0 921 30 921Q42 921 64 933T98 946Q128 946 128 907V771Q128 811 98 811Q87 811 64 798T30 785Z" />
<glyph unicode="&#xe1ce;" glyph-name="uniE1CE" horiz-adv-x="128" d="M30 910Q0 910 0 949V1085Q0 1046 30 1046Q42 1046 64 1058T98 1071Q128 1071 128 1032V896Q128 936 98 936Q87 936 64 923T30 910Z" />
<glyph unicode="&#xe1cf;" glyph-name="uniE1CF" horiz-adv-x="128" d="M30 1035Q0 1035 0 1074V1210Q0 1171 30 1171Q42 1171 64 1183T98 1196Q128 1196 128 1157V1021Q128 1061 98 1061Q87 1061 64 1048T30 1035Z" />
<glyph unicode="&#xe1d0;" glyph-name="uniE1D0" horiz-adv-x="93" d="M64 -65L109 -133L64 -200L19 -133L64 -65Z" />
<glyph unicode="&#xe1d3;" glyph-name="uniE1D3" horiz-adv-x="96" d="M64 -315L109 -383L64 -450L19 -383L64 -315Z" />
<glyph unicode="&#xe1d4;" glyph-name="uniE1D4" horiz-adv-x="96" d="M64 -190L109 -258L64 -325L19 -258L64 -190Z" />
<glyph unicode="&#xe1d5;" glyph-name="uniE1D5" horiz-adv-x="96" d="M64 -65L109 -133L64 -200L19 -133L64 -65Z" />
<glyph unicode="&#xe1d6;" glyph-name="uniE1D6" horiz-adv-x="96" d="M64 60L109 -8L64 -75L19 -8L64 60Z" />
<glyph unicode="&#xe1d7;" glyph-name="uniE1D7" horiz-adv-x="96" d="M64 185L109 117L64 50L19 117L64 185Z" />
<glyph unicode="&#xe1d8;" glyph-name="uniE1D8" horiz-adv-x="96" d="M64 310L109 242L64 175L19 242L64 310Z" />
<glyph unicode="&#xe1d9;" glyph-name="uniE1D9" horiz-adv-x="96" d="M64 435L109 367L64 300L19 367L64 435Z" />
<glyph unicode="&#xe1da;" glyph-name="uniE1DA" horiz-adv-x="96" d="M64 560L109 492L64 425L19 492L64 560Z" />
<glyph unicode="&#xe1db;" glyph-name="uniE1DB" horiz-adv-x="96" d="M64 685L109 617L64 550L19 617L64 685Z" />
<glyph unicode="&#xe1dc;" glyph-name="uniE1DC" horiz-adv-x="96" d="M64 810L109 742L64 675L19 742L64 810Z" />
<glyph unicode="&#xe1dd;" glyph-name="uniE1DD" horiz-adv-x="96" d="M64 935L109 867L64 800L19 867L64 935Z" />
<glyph unicode="&#xe1de;" glyph-name="uniE1DE" horiz-adv-x="96" d="M64 1060L109 992L64 925L19 992L64 1060Z" />
<glyph unicode="&#xe1df;" glyph-name="uniE1DF" horiz-adv-x="96" d="M64 1185L109 1117L64 1050L19 1117L64 1185Z" />
<glyph unicode="&#xe1e0;" glyph-name="uniE1E0" horiz-adv-x="128" d="M128 -238Q121 -211 90 -200T33 -189Q8 -189 0 -204V-69Q0 -44 27 -44Q27 -44 28 -44Q40 -44 54 -45T94 -58T128 -88V-238Z" />
<glyph unicode="&#xe1e3;" glyph-name="uniE1E3" horiz-adv-x="128" d="M128 -488Q121 -461 90 -450T33 -439Q8 -439 0 -454V-319Q0 -294 27 -294H28Q40 -294 54 -295T94 -308T128 -338V-488Z" />
<glyph unicode="&#xe1e4;" glyph-name="uniE1E4" horiz-adv-x="128" d="M128 -363Q121 -336 90 -325T33 -314Q8 -314 0 -329V-194Q0 -169 27 -169H28Q40 -169 54 -170T94 -183T128 -213V-363Z" />
<glyph unicode="&#xe1e5;" glyph-name="uniE1E5" horiz-adv-x="128" d="M128 -238Q121 -211 90 -200T33 -189Q8 -189 0 -204V-69Q0 -44 27 -44Q27 -44 28 -44Q40 -44 54 -45T94 -58T128 -88V-238Z" />
<glyph unicode="&#xe1e6;" glyph-name="uniE1E6" horiz-adv-x="128" d="M128 -113Q121 -86 90 -75T33 -64Q8 -64 0 -79V56Q0 81 27 81H28Q40 81 54 80T94 67T128 37V-113Z" />
<glyph unicode="&#xe1e7;" glyph-name="uniE1E7" horiz-adv-x="128" d="M128 12Q121 39 90 50T33 61Q8 61 0 46V181Q0 206 27 206H28Q40 206 54 205T94 192T128 162V12Z" />
<glyph unicode="&#xe1e8;" glyph-name="uniE1E8" horiz-adv-x="128" d="M128 137Q121 164 90 175T33 186Q8 186 0 171V306Q0 331 27 331H28Q40 331 54 330T94 317T128 287V137Z" />
<glyph unicode="&#xe1e9;" glyph-name="uniE1E9" horiz-adv-x="128" d="M128 262Q121 289 90 300T33 311Q8 311 0 296V431Q0 456 27 456H28Q40 456 54 455T94 442T128 412V262Z" />
<glyph unicode="&#xe1ea;" glyph-name="uniE1EA" horiz-adv-x="128" d="M128 387Q121 414 90 425T33 436Q8 436 0 421V556Q0 581 27 581H28Q40 581 54 580T94 567T128 537V387Z" />
<glyph unicode="&#xe1eb;" glyph-name="uniE1EB" horiz-adv-x="128" d="M128 512Q121 539 90 550T33 561Q8 561 0 546V681Q0 706 27 706H28Q40 706 54 705T94 692T128 662V512Z" />
<glyph unicode="&#xe1ec;" glyph-name="uniE1EC" horiz-adv-x="128" d="M128 637Q121 664 90 675T33 686Q8 686 0 671V806Q0 831 27 831H28Q40 831 54 830T94 817T128 787V637Z" />
<glyph unicode="&#xe1ed;" glyph-name="uniE1ED" horiz-adv-x="128" d="M128 762Q121 789 90 800T33 811Q8 811 0 796V931Q0 956 27 956H28Q40 956 54 955T94 942T128 912V762Z" />
<glyph unicode="&#xe1ee;" glyph-name="uniE1EE" horiz-adv-x="128" d="M128 887Q121 914 90 925T33 936Q8 936 0 921V1056Q0 1081 27 1081H28Q40 1081 54 1080T94 1067T128 1037V887Z" />
<glyph unicode="&#xe1ef;" glyph-name="uniE1EF" horiz-adv-x="128" d="M128 1012Q121 1039 90 1050T33 1061Q8 1061 0 1046V1181Q0 1206 27 1206H28Q40 1206 54 1205T94 1192T128 1162V1012Z" />
<glyph unicode="&#xe1f0;" glyph-name="uniE1F0" horiz-adv-x="128" d="M128 -176Q119 -195 94 -206T54 -218T28 -220H27Q0 -220 0 -194V-60Q8 -74 33 -74Q59 -74 90 -63T128 -25V-176Z" />
<glyph unicode="&#xe1f3;" glyph-name="uniE1F3" horiz-adv-x="128" d="M128 -426Q119 -445 94 -456T54 -468T28 -470H27Q0 -470 0 -444V-310Q8 -324 33 -324Q59 -324 90 -313T128 -275V-426Z" />
<glyph unicode="&#xe1f4;" glyph-name="uniE1F4" horiz-adv-x="128" d="M128 -301Q119 -320 94 -331T54 -343T28 -345H27Q0 -345 0 -319V-185Q8 -199 33 -199Q59 -199 90 -188T128 -150V-301Z" />
<glyph unicode="&#xe1f5;" glyph-name="uniE1F5" horiz-adv-x="128" d="M128 -176Q119 -195 94 -206T54 -218T28 -220H27Q0 -220 0 -194V-60Q8 -74 33 -74Q59 -74 90 -63T128 -25V-176Z" />
<glyph unicode="&#xe1f6;" glyph-name="uniE1F6" horiz-adv-x="128" d="M128 -51Q119 -70 94 -81T54 -93T28 -95Q28 -95 27 -95Q0 -95 0 -69V65Q8 51 33 51Q59 51 90 62T128 100V-51Z" />
<glyph unicode="&#xe1f7;" glyph-name="uniE1F7" horiz-adv-x="128" d="M128 74Q119 55 94 44T54 32T28 30Q28 30 27 30Q0 30 0 56V190Q8 176 33 176Q59 176 90 187T128 225V74Z" />
<glyph unicode="&#xe1f8;" glyph-name="uniE1F8" horiz-adv-x="128" d="M128 199Q119 180 94 169T54 157T28 155Q28 155 27 155Q0 155 0 181V315Q8 301 33 301Q59 301 90 312T128 350V199Z" />
<glyph unicode="&#xe1f9;" glyph-name="uniE1F9" horiz-adv-x="128" d="M128 324Q119 305 94 294T54 282T28 280H27Q0 280 0 306V440Q8 426 33 426Q59 426 90 437T128 475V324Z" />
<glyph unicode="&#xe1fa;" glyph-name="uniE1FA" horiz-adv-x="128" d="M128 449Q119 430 94 419T54 407T28 405H27Q0 405 0 431V565Q8 551 33 551Q59 551 90 562T128 600V449Z" />
<glyph unicode="&#xe1fb;" glyph-name="uniE1FB" horiz-adv-x="128" d="M128 574Q119 555 94 544T54 532T28 530H27Q0 530 0 556V690Q8 676 33 676Q59 676 90 687T128 725V574Z" />
<glyph unicode="&#xe1fc;" glyph-name="uniE1FC" horiz-adv-x="128" d="M128 699Q119 680 94 669T54 657T28 655H27Q0 655 0 681V815Q8 801 33 801Q59 801 90 812T128 850V699Z" />
<glyph unicode="&#xe1fd;" glyph-name="uniE1FD" horiz-adv-x="128" d="M128 824Q119 805 94 794T54 782T28 780H27Q0 780 0 806V940Q8 926 33 926Q59 926 90 937T128 975V824Z" />
<glyph unicode="&#xe1fe;" glyph-name="uniE1FE" horiz-adv-x="128" d="M128 949Q119 930 94 919T54 907T28 905H27Q0 905 0 931V1065Q8 1051 33 1051Q59 1051 90 1062T128 1100V949Z" />
<glyph unicode="&#xe1ff;" glyph-name="uniE1FF" horiz-adv-x="128" d="M128 1074Q119 1055 94 1044T54 1032T28 1030H27Q0 1030 0 1056V1190Q8 1176 33 1176Q59 1176 90 1187T128 1225V1074Z" />
<glyph unicode="&#xe200;" glyph-name="uniE200" horiz-adv-x="11" d="M-12 -75Q11 -75 11 -94V-231H-1V-189Q-1 -166 -20 -166Q-41 -166 -53 -180V-112Q-53 -98 -41 -87T-12 -75Z" />
<glyph unicode="&#xe203;" glyph-name="uniE203" horiz-adv-x="0" d="M-12 -75Q11 -75 11 -94V-231H-1V-189Q-1 -166 -20 -166Q-41 -166 -53 -180V-112Q-53 -98 -41 -87T-12 -75Z" />
<glyph unicode="&#xe204;" glyph-name="uniE204" horiz-adv-x="11" d="M-12 -200Q11 -200 11 -219V-356H-1V-314Q-1 -291 -20 -291Q-41 -291 -53 -305V-237Q-53 -223 -41 -212T-12 -200Z" />
<glyph unicode="&#xe205;" glyph-name="uniE205" horiz-adv-x="11" d="M-12 -75Q11 -75 11 -94V-231H-1V-189Q-1 -166 -20 -166Q-41 -166 -53 -180V-112Q-53 -98 -41 -87T-12 -75Z" />
<glyph unicode="&#xe206;" glyph-name="uniE206" horiz-adv-x="11" d="M-12 50Q11 50 11 31V-106H-1V-64Q-1 -41 -20 -41Q-41 -41 -53 -55V13Q-53 27 -41 38T-12 50Z" />
<glyph unicode="&#xe207;" glyph-name="uniE207" horiz-adv-x="11" d="M-12 175Q11 175 11 156V19H-1V61Q-1 84 -20 84Q-41 84 -53 70V138Q-53 152 -41 163T-12 175Z" />
<glyph unicode="&#xe208;" glyph-name="uniE208" horiz-adv-x="11" d="M-12 300Q11 300 11 281V144H-1V186Q-1 209 -20 209Q-41 209 -53 195V263Q-53 277 -41 288T-12 300Z" />
<glyph unicode="&#xe209;" glyph-name="uniE209" horiz-adv-x="11" d="M-12 425Q11 425 11 406V269H-1V311Q-1 334 -20 334Q-41 334 -53 320V388Q-53 402 -41 413T-12 425Z" />
<glyph unicode="&#xe20a;" glyph-name="uniE20A" horiz-adv-x="11" d="M-12 550Q11 550 11 531V394H-1V436Q-1 459 -20 459Q-41 459 -53 445V513Q-53 527 -41 538T-12 550Z" />
<glyph unicode="&#xe20b;" glyph-name="uniE20B" horiz-adv-x="11" d="M-12 675Q11 675 11 656V519H-1V561Q-1 584 -20 584Q-41 584 -53 570V638Q-53 652 -41 663T-12 675Z" />
<glyph unicode="&#xe20c;" glyph-name="uniE20C" horiz-adv-x="11" d="M-12 800Q11 800 11 781V644H-1V686Q-1 709 -20 709Q-41 709 -53 695V763Q-53 777 -41 788T-12 800Z" />
<glyph unicode="&#xe20d;" glyph-name="uniE20D" horiz-adv-x="11" d="M-12 925Q11 925 11 906V769H-1V811Q-1 834 -20 834Q-41 834 -53 820V888Q-53 902 -41 913T-12 925Z" />
<glyph unicode="&#xe20e;" glyph-name="uniE20E" horiz-adv-x="11" d="M-12 1050Q11 1050 11 1031V894H-1V936Q-1 959 -20 959Q-41 959 -53 945V1013Q-53 1027 -41 1038T-12 1050Z" />
<glyph unicode="&#xe20f;" glyph-name="uniE20F" horiz-adv-x="11" d="M-12 1175Q11 1175 11 1156V1019H-1V1061Q-1 1084 -20 1084Q-41 1084 -53 1070V1138Q-53 1152 -41 1163T-12 1175Z" />
<glyph unicode="&#xe210;" glyph-name="uniE210" horiz-adv-x="11" d="M-12 -189Q-29 -189 -41 -178T-53 -151V-84Q-41 -98 -20 -98Q-1 -98 -1 -74V-32H11V-170Q11 -189 -12 -189Z" />
<glyph unicode="&#xe213;" glyph-name="uniE213" horiz-adv-x="11" d="M-12 -439Q-29 -439 -41 -428T-53 -401V-334Q-41 -348 -20 -348Q-1 -348 -1 -324V-282H11V-420Q11 -439 -12 -439Z" />
<glyph unicode="&#xe214;" glyph-name="uniE214" horiz-adv-x="11" d="M-12 -314Q-29 -314 -41 -303T-53 -276V-209Q-41 -223 -20 -223Q-1 -223 -1 -199V-157H11V-295Q11 -314 -12 -314Z" />
<glyph unicode="&#xe215;" glyph-name="uniE215" horiz-adv-x="11" d="M-12 -189Q-29 -189 -41 -178T-53 -151V-84Q-41 -98 -20 -98Q-1 -98 -1 -74V-32H11V-170Q11 -189 -12 -189Z" />
<glyph unicode="&#xe216;" glyph-name="uniE216" horiz-adv-x="11" d="M-12 -64Q-29 -64 -41 -53T-53 -26V41Q-41 27 -20 27Q-1 27 -1 51V93H11V-45Q11 -64 -12 -64Z" />
<glyph unicode="&#xe217;" glyph-name="uniE217" horiz-adv-x="11" d="M-12 61Q-29 61 -41 72T-53 99V166Q-41 152 -20 152Q-1 152 -1 176V218H11V80Q11 61 -12 61Z" />
<glyph unicode="&#xe218;" glyph-name="uniE218" horiz-adv-x="11" d="M-12 186Q-29 186 -41 197T-53 224V291Q-41 277 -20 277Q-1 277 -1 301V343H11V205Q11 186 -12 186Z" />
<glyph unicode="&#xe219;" glyph-name="uniE219" horiz-adv-x="11" d="M-12 311Q-29 311 -41 322T-53 349V416Q-41 402 -20 402Q-1 402 -1 426V468H11V330Q11 311 -12 311Z" />
<glyph unicode="&#xe21a;" glyph-name="uniE21A" horiz-adv-x="11" d="M-12 436Q-29 436 -41 447T-53 474V541Q-41 527 -20 527Q-1 527 -1 551V593H11V455Q11 436 -12 436Z" />
<glyph unicode="&#xe21b;" glyph-name="uniE21B" horiz-adv-x="11" d="M-12 561Q-29 561 -41 572T-53 599V666Q-41 652 -20 652Q-1 652 -1 676V718H11V580Q11 561 -12 561Z" />
<glyph unicode="&#xe21c;" glyph-name="uniE21C" horiz-adv-x="11" d="M-12 686Q-29 686 -41 697T-53 724V791Q-41 777 -20 777Q-1 777 -1 801V843H11V705Q11 686 -12 686Z" />
<glyph unicode="&#xe21d;" glyph-name="uniE21D" horiz-adv-x="11" d="M-12 811Q-29 811 -41 822T-53 849V916Q-41 902 -20 902Q-1 902 -1 926V968H11V830Q11 811 -12 811Z" />
<glyph unicode="&#xe21e;" glyph-name="uniE21E" horiz-adv-x="11" d="M-12 936Q-29 936 -41 947T-53 974V1041Q-41 1027 -20 1027Q-1 1027 -1 1051V1093H11V955Q11 936 -12 936Z" />
<glyph unicode="&#xe220;" glyph-name="uniE220" horiz-adv-x="386" d="M363 -325Q141 -325 0 -201V-49Q55 -103 183 -170Q242 -201 336 -201Q377 -201 387 -163V-311Q387 -325 363 -325Z" />
<glyph unicode="&#xe221;" glyph-name="uniE221" horiz-adv-x="386" />
<glyph unicode="&#xe224;" glyph-name="uniE224" horiz-adv-x="386" d="M363 -450Q141 -450 0 -326V-174Q55 -228 183 -295Q242 -326 336 -326Q377 -326 387 -288V-436Q387 -450 363 -450Z" />
<glyph unicode="&#xe225;" glyph-name="uniE225" horiz-adv-x="386" d="M363 -325Q141 -325 0 -201V-49Q55 -103 183 -170Q242 -201 336 -201Q377 -201 387 -163V-311Q387 -325 363 -325Z" />
<glyph unicode="&#xe226;" glyph-name="uniE226" horiz-adv-x="386" d="M363 -200Q141 -200 0 -76V76Q55 22 183 -45Q242 -76 336 -76Q377 -76 387 -38V-186Q387 -200 363 -200Z" />
<glyph unicode="&#xe227;" glyph-name="uniE227" horiz-adv-x="386" d="M363 -75Q141 -75 0 49V201Q55 147 183 80Q242 49 336 49Q377 49 387 87V-61Q387 -75 363 -75Z" />
<glyph unicode="&#xe228;" glyph-name="uniE228" horiz-adv-x="386" d="M363 50Q141 50 0 174V326Q55 272 183 205Q242 174 336 174Q377 174 387 212V64Q387 50 363 50Z" />
<glyph unicode="&#xe229;" glyph-name="uniE229" horiz-adv-x="386" d="M363 175Q141 175 0 299V451Q55 397 183 330Q242 299 336 299Q377 299 387 337V189Q387 175 363 175Z" />
<glyph unicode="&#xe22a;" glyph-name="uniE22A" horiz-adv-x="386" d="M363 300Q141 300 0 424V576Q55 522 183 455Q242 424 336 424Q377 424 387 462V314Q387 300 363 300Z" />
<glyph unicode="&#xe22b;" glyph-name="uniE22B" horiz-adv-x="386" d="M363 425Q141 425 0 549V701Q55 647 183 580Q242 549 336 549Q377 549 387 587V439Q387 425 363 425Z" />
<glyph unicode="&#xe22c;" glyph-name="uniE22C" horiz-adv-x="386" d="M363 550Q141 550 0 674V826Q55 772 183 705Q242 674 336 674Q377 674 387 712V564Q387 550 363 550Z" />
<glyph unicode="&#xe22d;" glyph-name="uniE22D" horiz-adv-x="386" d="M363 675Q141 675 0 799V951Q55 897 183 830Q242 799 336 799Q377 799 387 837V689Q387 675 363 675Z" />
<glyph unicode="&#xe22e;" glyph-name="uniE22E" horiz-adv-x="386" d="M363 800Q141 800 0 924V1076Q55 1022 183 955Q242 924 336 924Q377 924 387 962V814Q387 800 363 800Z" />
<glyph unicode="&#xe22f;" glyph-name="uniE22F" horiz-adv-x="386" d="M363 925Q141 925 0 1049V1201Q55 1147 183 1080Q242 1049 336 1049Q377 1049 387 1087V939Q387 925 363 925Z" />
<glyph unicode="&#xe230;" glyph-name="uniE230" horiz-adv-x="483" d="M0 -49Q83 -158 206 -244T433 -345H442Q473 -345 483 -307V-454Q483 -469 460 -469Q363 -469 228 -383Q75 -285 0 -201V-49Z" />
<glyph unicode="&#xe235;" glyph-name="uniE235" horiz-adv-x="483" d="M0 -49Q83 -158 206 -244T433 -345H442Q473 -345 483 -307V-454Q483 -469 460 -469Q363 -469 228 -383Q75 -285 0 -201V-49Z" />
<glyph unicode="&#xe236;" glyph-name="uniE236" horiz-adv-x="483" d="M0 76Q83 -33 206 -119T433 -220H442Q473 -220 483 -182V-329Q483 -344 460 -344Q363 -344 228 -258Q75 -160 0 -76V76Z" />
<glyph unicode="&#xe237;" glyph-name="uniE237" horiz-adv-x="483" d="M0 201Q83 92 206 6T433 -95H442Q473 -95 483 -57V-204Q483 -219 460 -219Q363 -219 228 -133Q75 -35 0 49V201Z" />
<glyph unicode="&#xe238;" glyph-name="uniE238" horiz-adv-x="483" d="M0 326Q83 217 206 131T433 30H442Q473 30 483 68V-79Q483 -94 460 -94Q363 -94 228 -8Q75 90 0 174V326Z" />
<glyph unicode="&#xe239;" glyph-name="uniE239" horiz-adv-x="483" d="M0 451Q83 342 206 256T433 155H442Q473 155 483 193V46Q483 31 460 31Q363 31 228 117Q75 215 0 299V451Z" />
<glyph unicode="&#xe23a;" glyph-name="uniE23A" horiz-adv-x="483" d="M0 576Q83 467 206 381T433 280H442Q473 280 483 318V171Q483 156 460 156Q363 156 228 242Q75 340 0 424V576Z" />
<glyph unicode="&#xe23b;" glyph-name="uniE23B" horiz-adv-x="483" d="M0 701Q83 592 206 506T433 405H442Q473 405 483 443V296Q483 281 460 281Q363 281 228 367Q75 465 0 549V701Z" />
<glyph unicode="&#xe23c;" glyph-name="uniE23C" horiz-adv-x="483" d="M0 826Q83 717 206 631T433 530H442Q473 530 483 568V421Q483 406 460 406Q363 406 228 492Q75 590 0 674V826Z" />
<glyph unicode="&#xe23d;" glyph-name="uniE23D" horiz-adv-x="483" d="M0 951Q83 842 206 756T433 655H442Q473 655 483 693V546Q483 531 460 531Q363 531 228 617Q75 715 0 799V951Z" />
<glyph unicode="&#xe23e;" glyph-name="uniE23E" horiz-adv-x="483" d="M0 1076Q83 967 206 881T433 780H442Q473 780 483 818V671Q483 656 460 656Q363 656 228 742Q75 840 0 924V1076Z" />
<glyph unicode="&#xe23f;" glyph-name="uniE23F" horiz-adv-x="483" d="M0 1201Q83 1092 206 1006T433 905H442Q473 905 483 943V796Q483 781 460 781Q363 781 228 867Q75 965 0 1049V1201Z" />
<glyph unicode="&#xe240;" glyph-name="uniE240" horiz-adv-x="483" d="M460 -594Q366 -562 229 -445Q134 -366 0 -201V-49Q153 -238 232 -323Q276 -370 327 -407T408 -459T449 -474Q473 -474 483 -432V-578Q483 -596 470 -596Q466 -596 460 -594Z" />
<glyph unicode="&#xe246;" glyph-name="uniE246" horiz-adv-x="483" d="M460 -469Q366 -437 229 -320Q134 -241 0 -76V76Q153 -113 232 -198Q276 -245 327 -282T408 -334T449 -349Q473 -349 483 -307V-453Q483 -471 470 -471Q466 -471 460 -469Z" />
<glyph unicode="&#xe247;" glyph-name="uniE247" horiz-adv-x="483" d="M460 -344Q366 -312 229 -195Q134 -116 0 49V201Q153 12 232 -73Q276 -120 327 -157T408 -209T449 -224Q473 -224 483 -182V-328Q483 -346 470 -346Q466 -346 460 -344Z" />
<glyph unicode="&#xe248;" glyph-name="uniE248" horiz-adv-x="483" d="M460 -219Q366 -187 229 -70Q134 9 0 174V326Q153 137 232 52Q276 5 327 -32T408 -84T449 -99Q473 -99 483 -57V-203Q483 -221 470 -221Q466 -221 460 -219Z" />
<glyph unicode="&#xe249;" glyph-name="uniE249" horiz-adv-x="483" d="M460 -94Q366 -62 229 55Q134 134 0 299V451Q153 262 232 177Q276 130 327 93T408 41T449 26Q473 26 483 68V-78Q483 -96 470 -96Q466 -96 460 -94Z" />
<glyph unicode="&#xe24a;" glyph-name="uniE24A" horiz-adv-x="483" d="M460 31Q366 63 229 180Q134 259 0 424V576Q153 387 232 302Q276 255 327 218T408 166T449 151Q473 151 483 193V47Q483 29 470 29Q466 29 460 31Z" />
<glyph unicode="&#xe24b;" glyph-name="uniE24B" horiz-adv-x="483" d="M460 156Q366 188 229 305Q134 384 0 549V701Q153 512 232 427Q276 380 327 343T408 291T449 276Q473 276 483 318V172Q483 154 470 154Q466 154 460 156Z" />
<glyph unicode="&#xe24c;" glyph-name="uniE24C" horiz-adv-x="483" d="M460 281Q366 313 229 430Q134 509 0 674V826Q153 637 232 552Q276 505 327 468T408 416T449 401Q473 401 483 443V297Q483 279 470 279Q466 279 460 281Z" />
<glyph unicode="&#xe24d;" glyph-name="uniE24D" horiz-adv-x="483" d="M460 406Q366 438 229 555Q134 634 0 799V951Q153 762 232 677Q276 630 327 593T408 541T449 526Q473 526 483 568V422Q483 404 470 404Q466 404 460 406Z" />
<glyph unicode="&#xe24e;" glyph-name="uniE24E" horiz-adv-x="483" d="M460 531Q366 563 229 680Q134 759 0 924V1076Q153 887 232 802Q276 755 327 718T408 666T449 651Q473 651 483 693V547Q483 529 470 529Q466 529 460 531Z" />
<glyph unicode="&#xe24f;" glyph-name="uniE24F" horiz-adv-x="483" d="M460 656Q366 688 229 805Q134 884 0 1049V1201Q153 1012 232 927Q276 880 327 843T408 791T449 776Q473 776 483 818V672Q483 654 470 654Q466 654 460 656Z" />
<glyph unicode="&#xe250;" glyph-name="uniE250" horiz-adv-x="483" d="M460 -719Q301 -644 0 -201V-49Q59 -159 190 -333T433 -595Q443 -602 451 -602Q472 -602 483 -557V-704Q483 -722 472 -722Q467 -722 460 -719Z" />
<glyph unicode="&#xe257;" glyph-name="uniE257" horiz-adv-x="483" d="M460 -469Q301 -394 0 49V201Q59 91 190 -83T433 -345Q443 -352 451 -352Q472 -352 483 -307V-454Q483 -472 472 -472Q467 -472 460 -469Z" />
<glyph unicode="&#xe258;" glyph-name="uniE258" horiz-adv-x="483" d="M460 -344Q301 -269 0 174V326Q59 216 190 42T433 -220Q443 -227 451 -227Q472 -227 483 -182V-329Q483 -347 472 -347Q467 -347 460 -344Z" />
<glyph unicode="&#xe259;" glyph-name="uniE259" horiz-adv-x="483" d="M460 -219Q301 -144 0 299V451Q59 341 190 167T433 -95Q443 -102 451 -102Q472 -102 483 -57V-204Q483 -222 472 -222Q467 -222 460 -219Z" />
<glyph unicode="&#xe25a;" glyph-name="uniE25A" horiz-adv-x="483" d="M460 -94Q301 -19 0 424V576Q59 466 190 292T433 30Q443 23 451 23Q472 23 483 68V-79Q483 -97 472 -97Q467 -97 460 -94Z" />
<glyph unicode="&#xe25b;" glyph-name="uniE25B" horiz-adv-x="483" d="M460 31Q301 106 0 549V701Q59 591 190 417T433 155Q443 148 451 148Q472 148 483 193V46Q483 28 472 28Q467 28 460 31Z" />
<glyph unicode="&#xe25c;" glyph-name="uniE25C" horiz-adv-x="483" d="M460 156Q301 231 0 674V826Q59 716 190 542T433 280Q443 273 451 273Q472 273 483 318V171Q483 153 472 153Q467 153 460 156Z" />
<glyph unicode="&#xe25d;" glyph-name="uniE25D" horiz-adv-x="483" d="M460 281Q301 356 0 799V951Q59 841 190 667T433 405Q443 398 451 398Q472 398 483 443V296Q483 278 472 278Q467 278 460 281Z" />
<glyph unicode="&#xe25e;" glyph-name="uniE25E" horiz-adv-x="483" d="M460 406Q301 481 0 924V1076Q59 966 190 792T433 530Q443 523 451 523Q472 523 483 568V421Q483 403 472 403Q467 403 460 406Z" />
<glyph unicode="&#xe25f;" glyph-name="uniE25F" horiz-adv-x="483" d="M460 531Q301 606 0 1049V1201Q59 1091 190 917T433 655Q443 648 451 648Q472 648 483 693V546Q483 528 472 528Q467 528 460 531Z" />
<glyph unicode="&#xe270;" glyph-name="uniE270" horiz-adv-x="128" d="M64 -85Q46 -85 33 -98T19 -131T32 -165T64 -179Q85 -179 98 -165T111 -132T98 -99T64 -85ZM64 -54Q128 -54 128 -91V-212Q107 -191 64 -191T0 -212V-91Q0 -54 64 -54Z" />
<glyph unicode="&#xe271;" glyph-name="uniE271" horiz-adv-x="128" d="M64 -213Q46 -213 33 -226T19 -259T32 -293T64 -307Q85 -307 98 -293T111 -260T98 -227T64 -213ZM64 -182Q128 -182 128 -219V-340Q107 -319 64 -319T0 -340V-219Q0 -182 64 -182Z" />
<glyph unicode="&#xe272;" glyph-name="uniE272" horiz-adv-x="128" d="M64 43Q46 43 33 30T19 -3T32 -37T64 -51Q85 -51 98 -37T111 -4T98 29T64 43ZM64 74Q128 74 128 37V-84Q107 -63 64 -63T0 -84V37Q0 74 64 74Z" />
<glyph unicode="&#xe273;" glyph-name="uniE273" horiz-adv-x="128" d="M64 -335Q46 -335 33 -348T19 -381T32 -415T64 -429Q85 -429 98 -415T111 -382T98 -349T64 -335ZM64 -304Q128 -304 128 -341V-462Q107 -441 64 -441T0 -462V-341Q0 -304 64 -304Z" />
<glyph unicode="&#xe274;" glyph-name="uniE274" horiz-adv-x="128" d="M64 -213Q46 -213 33 -226T19 -259T32 -293T64 -307Q85 -307 98 -293T111 -260T98 -227T64 -213ZM64 -182Q128 -182 128 -219V-340Q107 -319 64 -319T0 -340V-219Q0 -182 64 -182Z" />
<glyph unicode="&#xe275;" glyph-name="uniE275" horiz-adv-x="128" d="M64 -85Q46 -85 33 -98T19 -131T32 -165T64 -179Q85 -179 98 -165T111 -132T98 -99T64 -85ZM64 -54Q128 -54 128 -91V-212Q107 -191 64 -191T0 -212V-91Q0 -54 64 -54Z" />
<glyph unicode="&#xe276;" glyph-name="uniE276" horiz-adv-x="128" d="M64 43Q46 43 33 30T19 -3T32 -37T64 -51Q85 -51 98 -37T111 -4T98 29T64 43ZM64 74Q128 74 128 37V-84Q107 -63 64 -63T0 -84V37Q0 74 64 74Z" />
<glyph unicode="&#xe277;" glyph-name="uniE277" horiz-adv-x="128" d="M64 165Q46 165 33 152T19 119T32 85T64 71Q85 71 98 85T111 118T98 151T64 165ZM64 196Q128 196 128 159V38Q107 59 64 59T0 38V159Q0 196 64 196Z" />
<glyph unicode="&#xe278;" glyph-name="uniE278" horiz-adv-x="128" d="M64 293Q46 293 33 280T19 247T32 213T64 199Q85 199 98 213T111 246T98 279T64 293ZM64 324Q128 324 128 287V166Q107 187 64 187T0 166V287Q0 324 64 324Z" />
<glyph unicode="&#xe279;" glyph-name="uniE279" horiz-adv-x="128" d="M64 415Q46 415 33 402T19 369T32 335T64 321Q85 321 98 335T111 368T98 401T64 415ZM64 446Q128 446 128 409V288Q107 309 64 309T0 288V409Q0 446 64 446Z" />
<glyph unicode="&#xe27a;" glyph-name="uniE27A" horiz-adv-x="128" d="M64 543Q46 543 33 530T19 497T32 463T64 449Q85 449 98 463T111 496T98 529T64 543ZM64 574Q128 574 128 537V416Q107 437 64 437T0 416V537Q0 574 64 574Z" />
<glyph unicode="&#xe27b;" glyph-name="uniE27B" horiz-adv-x="128" d="M64 665Q46 665 33 652T19 619T32 585T64 571Q85 571 98 585T111 618T98 651T64 665ZM64 696Q128 696 128 659V538Q107 559 64 559T0 538V659Q0 696 64 696Z" />
<glyph unicode="&#xe27c;" glyph-name="uniE27C" horiz-adv-x="128" d="M64 793Q46 793 33 780T19 747T32 713T64 699Q85 699 98 713T111 746T98 779T64 793ZM64 824Q128 824 128 787V666Q107 687 64 687T0 666V787Q0 824 64 824Z" />
<glyph unicode="&#xe27d;" glyph-name="uniE27D" horiz-adv-x="128" d="M64 915Q46 915 33 902T19 869T32 835T64 821Q85 821 98 835T111 868T98 901T64 915ZM64 946Q128 946 128 909V788Q107 809 64 809T0 788V909Q0 946 64 946Z" />
<glyph unicode="&#xe27e;" glyph-name="uniE27E" horiz-adv-x="128" d="M64 1037Q46 1037 33 1024T19 991T32 957T64 943Q85 943 98 957T111 990T98 1023T64 1037ZM64 1068Q128 1068 128 1031V910Q107 931 64 931T0 910V1031Q0 1068 64 1068Z" />
<glyph unicode="&#xe27f;" glyph-name="uniE27F" horiz-adv-x="128" d="M64 1165Q46 1165 33 1152T19 1119T32 1085T64 1071Q85 1071 98 1085T111 1118T98 1151T64 1165ZM64 1196Q128 1196 128 1159V1038Q107 1059 64 1059T0 1038V1159Q0 1196 64 1196Z" />
<glyph unicode="&#xe280;" glyph-name="uniE280" horiz-adv-x="128" d="M65 -35Q73 -60 96 -89L127 -129L108 -164Q77 -218 36 -229Q45 -222 45 -210Q45 -194 26 -165L2 -129L65 -35Z" />
<glyph unicode="&#xe283;" glyph-name="uniE283" horiz-adv-x="128" d="M65 -285Q73 -310 96 -339L127 -379L108 -414Q77 -468 36 -479Q45 -472 45 -460Q45 -444 26 -415L2 -379L65 -285Z" />
<glyph unicode="&#xe284;" glyph-name="uniE284" horiz-adv-x="128" d="M65 -160Q73 -185 96 -214L127 -254L108 -289Q77 -343 36 -354Q45 -347 45 -335Q45 -318 26 -290L2 -254L65 -160Z" />
<glyph unicode="&#xe285;" glyph-name="uniE285" horiz-adv-x="128" d="M65 -35Q73 -60 96 -89L127 -129L108 -164Q77 -218 36 -229Q45 -222 45 -210Q45 -193 26 -165L2 -129L65 -35Z" />
<glyph unicode="&#xe286;" glyph-name="uniE286" horiz-adv-x="128" d="M65 90Q73 65 96 36L127 -4L108 -39Q77 -93 36 -104Q45 -97 45 -85Q45 -68 26 -40L2 -4L65 90Z" />
<glyph unicode="&#xe287;" glyph-name="uniE287" horiz-adv-x="128" d="M65 215Q73 190 96 161L127 121L108 86Q77 32 36 21Q45 28 45 40Q45 56 26 85L2 121L65 215Z" />
<glyph unicode="&#xe288;" glyph-name="uniE288" horiz-adv-x="128" d="M65 340Q73 315 96 286L127 246L108 211Q77 157 36 146Q45 153 45 165Q45 182 26 210L2 246L65 340Z" />
<glyph unicode="&#xe289;" glyph-name="uniE289" horiz-adv-x="128" d="M65 465Q73 440 96 411L127 371L108 336Q77 282 36 271Q45 278 45 290Q45 306 26 335L2 371L65 465Z" />
<glyph unicode="&#xe28a;" glyph-name="uniE28A" horiz-adv-x="128" d="M65 590Q73 565 96 536L127 496L108 461Q77 407 36 396Q45 403 45 415Q45 432 26 460L2 496L65 590Z" />
<glyph unicode="&#xe28b;" glyph-name="uniE28B" horiz-adv-x="128" d="M65 715Q73 690 96 661L127 621L108 586Q77 532 36 521Q45 528 45 540Q45 556 26 585L2 621L65 715Z" />
<glyph unicode="&#xe28c;" glyph-name="uniE28C" horiz-adv-x="128" d="M65 840Q73 815 96 786L127 746L108 711Q77 657 36 646Q45 653 45 665Q45 681 26 710L2 746L65 840Z" />
<glyph unicode="&#xe28d;" glyph-name="uniE28D" horiz-adv-x="128" d="M65 965Q73 940 96 911L127 871L108 836Q77 782 36 771Q45 778 45 790Q45 806 26 835L2 871L65 965Z" />
<glyph unicode="&#xe28e;" glyph-name="uniE28E" horiz-adv-x="128" d="M65 1090Q73 1065 96 1036L127 996L108 961Q77 907 36 896Q45 903 45 915Q45 931 26 960L2 996L65 1090Z" />
<glyph unicode="&#xe28f;" glyph-name="uniE28F" horiz-adv-x="128" d="M65 1215Q73 1190 96 1161L127 1121L108 1086Q77 1032 36 1021Q45 1028 45 1040Q45 1056 26 1085L2 1121L65 1215Z" />
<glyph unicode="&#xe2a3;" glyph-name="uniE2A3" horiz-adv-x="64" d="M64 -466Q8 -457 8 -428V-290Q26 -306 52 -306V-136Q52 -121 57 -121Q58 -121 58 -121Q64 -122 64 -146V-466Z" />
<glyph unicode="&#xe2a4;" glyph-name="uniE2A4" horiz-adv-x="64" d="M64 -341Q8 -332 8 -303V-165Q26 -181 52 -181V71Q52 93 58 93Q58 93 59 93Q66 93 66 81Q66 75 64 67V-341Z" />
<glyph unicode="&#xe2a5;" glyph-name="uniE2A5" horiz-adv-x="64" d="M64 -216Q8 -207 8 -178V-40Q26 -56 52 -56V114Q52 129 57 129Q58 129 58 129Q64 128 64 104V-216Z" />
<glyph unicode="&#xe2a6;" glyph-name="uniE2A6" horiz-adv-x="64" d="M64 -91Q8 -82 8 -53V85Q26 69 52 69V321Q52 343 58 343Q58 343 59 343Q66 343 66 331Q66 325 64 317V-91Z" />
<glyph unicode="&#xe2a7;" glyph-name="uniE2A7" horiz-adv-x="64" d="M64 34Q8 43 8 72V210Q26 194 52 194V364Q52 379 57 379Q58 379 58 379Q64 378 64 354V34Z" />
<glyph unicode="&#xe2a8;" glyph-name="uniE2A8" horiz-adv-x="64" d="M64 159Q8 168 8 197V335Q26 319 52 319V571Q52 593 58 593Q58 593 59 593Q66 593 66 581Q66 575 64 567V159Z" />
<glyph unicode="&#xe2a9;" glyph-name="uniE2A9" horiz-adv-x="64" d="M64 284Q8 293 8 322V460Q26 444 52 444V614Q52 629 57 629Q58 629 58 629Q64 628 64 604V284Z" />
<glyph unicode="&#xe2aa;" glyph-name="uniE2AA" horiz-adv-x="64" d="M64 409Q8 418 8 447V585Q26 569 52 569V821Q52 843 58 843Q58 843 59 843Q66 843 66 831Q66 825 64 817V409Z" />
<glyph unicode="&#xe2ab;" glyph-name="uniE2AB" horiz-adv-x="64" d="M64 534Q8 543 8 572V710Q26 694 52 694V864Q52 879 57 879Q58 879 58 879Q64 878 64 854V534Z" />
<glyph unicode="&#xe2ac;" glyph-name="uniE2AC" horiz-adv-x="64" d="M52 669Q24 669 8 653V791Q8 823 64 829V421Q64 402 57 396Q52 396 52 412V669Z" />
<glyph unicode="&#xe2ad;" glyph-name="uniE2AD" horiz-adv-x="64" d="M52 796Q24 796 8 780V918Q8 950 64 956V636Q64 617 58 611Q57 611 57 611Q52 611 52 626V796Z" />
<glyph unicode="&#xe2ae;" glyph-name="uniE2AE" horiz-adv-x="64" d="M52 919Q24 919 8 903V1041Q8 1073 64 1079V671Q64 652 57 646Q52 646 52 662V919Z" />
<glyph unicode="&#xe2af;" glyph-name="uniE2AF" horiz-adv-x="64" d="M52 1046Q24 1046 8 1030V1168Q8 1200 64 1206V886Q64 867 58 861Q57 861 57 861Q52 861 52 876V1046Z" />
<glyph unicode="&#xe2b0;" glyph-name="uniE2B0" horiz-adv-x="1000" d="M62 55Q50 55 42 62T34 82T42 101T62 109Q73 109 81 102T89 82T81 63T62 55Z" />
<glyph unicode="&#xe2b1;" glyph-name="uniE2B1" horiz-adv-x="1000" d="M72 117T62 117T43 125T34 144T42 164T61 172T80 164T89 145T81 125Z" />
<glyph unicode="&#xe2b3;" glyph-name="uniE2B3" horiz-adv-x="0" d="M72 -383T62 -383T43 -375T34 -356T42 -336T61 -328T80 -336T89 -355T81 -375Z" />
<glyph unicode="&#xe2b4;" glyph-name="uniE2B4" horiz-adv-x="0" d="M73 -195T62 -195T42 -188T34 -168T42 -149T61 -141T81 -148T89 -168T81 -187Z" />
<glyph unicode="&#xe2b5;" glyph-name="uniE2B5" horiz-adv-x="0" d="M72 -133T62 -133T43 -125T34 -106T42 -86T61 -78T80 -86T89 -105T81 -125Z" />
<glyph unicode="&#xe2b6;" glyph-name="uniE2B6" horiz-adv-x="0" d="M73 55T62 55T42 62T34 82T42 101T61 109T81 102T89 82T81 63Z" />
<glyph unicode="&#xe2b7;" glyph-name="uniE2B7" horiz-adv-x="0" d="M72 117T62 117T43 125T34 144T42 164T61 172T80 164T89 145T81 125Z" />
<glyph unicode="&#xe2b8;" glyph-name="uniE2B8" horiz-adv-x="0" d="M73 305T62 305T42 312T34 332T42 351T61 359T81 352T89 332T81 313Z" />
<glyph unicode="&#xe2b9;" glyph-name="uniE2B9" horiz-adv-x="0" d="M72 367T62 367T43 375T34 394T42 414T61 422T80 414T89 395T81 375Z" />
<glyph unicode="&#xe2ba;" glyph-name="uniE2BA" horiz-adv-x="0" d="M73 555T62 555T42 562T34 582T42 601T61 609T81 602T89 582T81 563Z" />
<glyph unicode="&#xe2bb;" glyph-name="uniE2BB" horiz-adv-x="0" d="M72 617T62 617T43 625T34 644T42 664T61 672T80 664T89 645T81 625Z" />
<glyph unicode="&#xe2bc;" glyph-name="uniE2BC" horiz-adv-x="0" d="M73 805T62 805T42 812T34 832T42 851T61 859T81 852T89 832T81 813Z" />
<glyph unicode="&#xe2bd;" glyph-name="uniE2BD" horiz-adv-x="0" d="M72 867T62 867T43 875T34 894T42 914T61 922T80 914T89 895T81 875Z" />
<glyph unicode="&#xe2be;" glyph-name="uniE2BE" horiz-adv-x="0" d="M73 1055T62 1055T42 1062T34 1082T42 1101T61 1109T81 1102T89 1082T81 1063Z" />
<glyph unicode="&#xe2bf;" glyph-name="uniE2BF" horiz-adv-x="0" d="M72 1117T62 1117T43 1125T34 1144T42 1164T61 1172T80 1164T89 1145T81 1125Z" />
<glyph unicode="&#xe2c0;" glyph-name="uniE2C0" horiz-adv-x="0" d="M-74 -120H-55V-214H-74V-120Z" />
<glyph unicode="&#xe2c1;" glyph-name="uniE2C1" horiz-adv-x="0" d="M-74 -307H-55V-401H-74V-307Z" />
<glyph unicode="&#xe2c2;" glyph-name="uniE2C2" horiz-adv-x="0" d="M-74 -557H-55V-651H-74V-557Z" />
<glyph unicode="&#xe2c3;" glyph-name="uniE2C3" horiz-adv-x="0" d="M-74 -370H-55V-464H-74V-370Z" />
<glyph unicode="&#xe2c4;" glyph-name="uniE2C4" horiz-adv-x="0" d="M-74 -307H-55V-401H-74V-307Z" />
<glyph unicode="&#xe2c5;" glyph-name="uniE2C5" horiz-adv-x="0" d="M-74 -120H-55V-214H-74V-120Z" />
<glyph unicode="&#xe2c6;" glyph-name="uniE2C6" horiz-adv-x="0" d="M-74 -57H-55V-151H-74V-57Z" />
<glyph unicode="&#xe2c7;" glyph-name="uniE2C7" horiz-adv-x="0" d="M-74 130H-55V36H-74V130Z" />
<glyph unicode="&#xe2c8;" glyph-name="uniE2C8" horiz-adv-x="0" d="M-74 193H-55V99H-74V193Z" />
<glyph unicode="&#xe2c9;" glyph-name="uniE2C9" horiz-adv-x="0" d="M-74 380H-55V286H-74V380Z" />
<glyph unicode="&#xe2ca;" glyph-name="uniE2CA" horiz-adv-x="0" d="M-74 443H-55V349H-74V443Z" />
<glyph unicode="&#xe2cb;" glyph-name="uniE2CB" horiz-adv-x="0" d="M-74 630H-55V536H-74V630Z" />
<glyph unicode="&#xe2cc;" glyph-name="uniE2CC" horiz-adv-x="0" d="M-74 693H-55V599H-74V693Z" />
<glyph unicode="&#xe2cd;" glyph-name="uniE2CD" horiz-adv-x="0" d="M-74 880H-55V786H-74V880Z" />
<glyph unicode="&#xe2ce;" glyph-name="uniE2CE" horiz-adv-x="0" d="M-74 943H-55V849H-74V943Z" />
<glyph unicode="&#xe2cf;" glyph-name="uniE2CF" horiz-adv-x="0" d="M-74 1130H-55V1036H-74V1130Z" />
<glyph unicode="&#xe2d0;" glyph-name="uniE2D0" horiz-adv-x="0" d="M5 -160L3 -180H-135L-132 -160H5Z" />
<glyph unicode="&#xe2d1;" glyph-name="uniE2D1" horiz-adv-x="0" d="M5 -313L3 -333H-135L-132 -313H5Z" />
<glyph unicode="&#xe2d2;" glyph-name="uniE2D2" horiz-adv-x="0" d="M5 -563L3 -583H-135L-132 -563H5Z" />
<glyph unicode="&#xe2d3;" glyph-name="uniE2D3" horiz-adv-x="0" d="M5 -410L3 -430H-135L-132 -410H5Z" />
<glyph unicode="&#xe2d4;" glyph-name="uniE2D4" horiz-adv-x="0" d="M5 -313L3 -333H-135L-132 -313H5Z" />
<glyph unicode="&#xe2d5;" glyph-name="uniE2D5" horiz-adv-x="0" d="M5 -160L3 -180H-135L-132 -160H5Z" />
<glyph unicode="&#xe2d6;" glyph-name="uniE2D6" horiz-adv-x="0" d="M5 -63L3 -83H-135L-132 -63H5Z" />
<glyph unicode="&#xe2d7;" glyph-name="uniE2D7" horiz-adv-x="0" d="M5 90L3 70H-135L-132 90H5Z" />
<glyph unicode="&#xe2d8;" glyph-name="uniE2D8" horiz-adv-x="0" d="M5 187L3 167H-135L-132 187H5Z" />
<glyph unicode="&#xe2d9;" glyph-name="uniE2D9" horiz-adv-x="0" d="M5 340L3 320H-135L-132 340H5Z" />
<glyph unicode="&#xe2da;" glyph-name="uniE2DA" horiz-adv-x="0" d="M5 437L3 417H-135L-132 437H5Z" />
<glyph unicode="&#xe2db;" glyph-name="uniE2DB" horiz-adv-x="0" d="M5 590L3 570H-135L-132 590H5Z" />
<glyph unicode="&#xe2dc;" glyph-name="uniE2DC" horiz-adv-x="0" d="M5 687L3 667H-135L-132 687H5Z" />
<glyph unicode="&#xe2dd;" glyph-name="uniE2DD" horiz-adv-x="0" d="M5 840L3 820H-135L-132 840H5Z" />
<glyph unicode="&#xe2de;" glyph-name="uniE2DE" horiz-adv-x="0" d="M5 937L3 917H-135L-132 937H5Z" />
<glyph unicode="&#xe2df;" glyph-name="uniE2DF" horiz-adv-x="0" d="M5 1090L3 1070H-135L-132 1090H5Z" />
<glyph unicode="&#xe2e0;" glyph-name="uniE2E0" horiz-adv-x="0" d="M5 -160L3 -180H-263L-261 -160H5Z" />
<glyph unicode="&#xe2e1;" glyph-name="uniE2E1" horiz-adv-x="0" d="M5 -313L3 -333H-263L-261 -313H5Z" />
<glyph unicode="&#xe2e2;" glyph-name="uniE2E2" horiz-adv-x="0" d="M5 -563L3 -583H-263L-261 -563H5Z" />
<glyph unicode="&#xe2e3;" glyph-name="uniE2E3" horiz-adv-x="0" d="M5 -410L3 -430H-263L-261 -410H5Z" />
<glyph unicode="&#xe2e4;" glyph-name="uniE2E4" horiz-adv-x="0" d="M5 -313L3 -333H-263L-261 -313H5Z" />
<glyph unicode="&#xe2e5;" glyph-name="uniE2E5" horiz-adv-x="0" d="M5 -160L3 -180H-263L-261 -160H5Z" />
<glyph unicode="&#xe2e6;" glyph-name="uniE2E6" horiz-adv-x="0" d="M5 -63L3 -83H-263L-261 -63H5Z" />
<glyph unicode="&#xe2e7;" glyph-name="uniE2E7" horiz-adv-x="0" d="M5 90L3 70H-263L-261 90H5Z" />
<glyph unicode="&#xe2e8;" glyph-name="uniE2E8" horiz-adv-x="0" d="M5 187L3 167H-263L-261 187H5Z" />
<glyph unicode="&#xe2e9;" glyph-name="uniE2E9" horiz-adv-x="0" d="M5 340L3 320H-263L-261 340H5Z" />
<glyph unicode="&#xe2ea;" glyph-name="uniE2EA" horiz-adv-x="0" d="M5 437L3 417H-263L-261 437H5Z" />
<glyph unicode="&#xe2eb;" glyph-name="uniE2EB" horiz-adv-x="0" d="M5 590L3 570H-263L-261 590H5Z" />
<glyph unicode="&#xe2ec;" glyph-name="uniE2EC" horiz-adv-x="0" d="M5 687L3 667H-263L-261 687H5Z" />
<glyph unicode="&#xe2ed;" glyph-name="uniE2ED" horiz-adv-x="0" d="M5 840L3 820H-263L-261 840H5Z" />
<glyph unicode="&#xe2ee;" glyph-name="uniE2EE" horiz-adv-x="0" d="M5 937L3 917H-263L-261 937H5Z" />
<glyph unicode="&#xe2ef;" glyph-name="uniE2EF" horiz-adv-x="0" d="M5 1090L3 1070H-263L-261 1090H5Z" />
<glyph unicode="&#xe2f0;" glyph-name="uniE2F0" horiz-adv-x="0" d="M-74 1193H-55V1099H-74V1193Z" />
<glyph unicode="&#xe2f1;" glyph-name="uniE2F1" horiz-adv-x="0" d="M-74 1380H-55V1286H-74V1380Z" />
<glyph unicode="&#xe2f2;" glyph-name="uniE2F2" horiz-adv-x="0" d="M5 1187L3 1167H-135L-132 1187H5Z" />
<glyph unicode="&#xe2f3;" glyph-name="uniE2F3" horiz-adv-x="0" d="M5 1340L3 1320H-135L-132 1340H5Z" />
<glyph unicode="&#xe2f4;" glyph-name="uniE2F4" horiz-adv-x="0" d="M5 1187L3 1167H-263L-261 1187H5Z" />
<glyph unicode="&#xe2f5;" glyph-name="uniE2F5" horiz-adv-x="0" d="M5 1340L3 1320H-263L-261 1340H5Z" />
<glyph unicode="&#xe300;" glyph-name="uniE300" horiz-adv-x="257" d="M192 -179Q257 -179 257 -216V-337Q236 -316 193 -316T129 -337V-216Q129 -179 192 -179ZM64 -54Q128 -54 128 -91V-212Q107 -191 64 -191Q32 -191 12 -203V-325H0V-91Q0 -54 64 -54Z" />
<glyph unicode="&#xe301;" glyph-name="uniE301" horiz-adv-x="257" d="M64 -54Q128 -54 128 -91V-212Q107 -191 64 -191Q32 -191 12 -203V-450H0V-91Q0 -54 64 -54ZM192 -179Q257 -179 257 -216V-337Q236 -316 193 -316T129 -337V-216Q129 -179 192 -179Z" />
<glyph unicode="&#xe304;" glyph-name="uniE304" horiz-adv-x="257" d="M192 -304Q257 -304 257 -341V-462Q236 -441 193 -441T129 -462V-341Q129 -304 192 -304ZM64 -179Q128 -179 128 -216V-337Q107 -316 64 -316Q32 -316 12 -328V-450H0V-216Q0 -179 64 -179Z" />
<glyph unicode="&#xe305;" glyph-name="uniE305" horiz-adv-x="257" d="M192 -179Q257 -179 257 -216V-337Q236 -316 193 -316T129 -337V-216Q129 -179 192 -179ZM64 -54Q128 -54 128 -91V-212Q107 -191 64 -191Q32 -191 12 -203V-325H0V-91Q0 -54 64 -54Z" />
<glyph unicode="&#xe306;" glyph-name="uniE306" horiz-adv-x="257" d="M192 -54Q257 -54 257 -91V-212Q236 -191 193 -191T129 -212V-91Q129 -54 192 -54ZM64 71Q128 71 128 34V-87Q107 -66 64 -66Q32 -66 12 -78V-325H0V34Q0 71 64 71Z" />
<glyph unicode="&#xe307;" glyph-name="uniE307" horiz-adv-x="257" d="M192 71Q257 71 257 34V-87Q236 -66 193 -66T129 -87V34Q129 71 192 71ZM64 196Q128 196 128 159V38Q107 59 64 59Q32 59 12 47V-75H0V159Q0 196 64 196Z" />
<glyph unicode="&#xe308;" glyph-name="uniE308" horiz-adv-x="257" d="M192 196Q257 196 257 159V38Q236 59 193 59T129 38V159Q129 196 192 196ZM64 321Q128 321 128 284V163Q107 184 64 184Q32 184 12 172V-75H0V284Q0 321 64 321Z" />
<glyph unicode="&#xe309;" glyph-name="uniE309" horiz-adv-x="257" d="M192 321Q257 321 257 284V163Q236 184 193 184T129 163V284Q129 321 192 321ZM64 446Q128 446 128 409V288Q107 309 64 309Q32 309 12 297V175H0V409Q0 446 64 446Z" />
<glyph unicode="&#xe30a;" glyph-name="uniE30A" horiz-adv-x="257" d="M192 446Q257 446 257 409V288Q236 309 193 309T129 288V409Q129 446 192 446ZM64 571Q128 571 128 534V413Q107 434 64 434Q32 434 12 422V175H0V534Q0 571 64 571Z" />
<glyph unicode="&#xe30b;" glyph-name="uniE30B" horiz-adv-x="257" d="M192 571Q257 571 257 534V413Q236 434 193 434T129 413V534Q129 571 192 571ZM64 696Q128 696 128 659V538Q107 559 64 559Q32 559 12 547V425H0V659Q0 696 64 696Z" />
<glyph unicode="&#xe30c;" glyph-name="uniE30C" horiz-adv-x="257" d="M192 696Q257 696 257 659V538Q236 559 193 559T129 538V659Q129 696 192 696ZM64 821Q128 821 128 784V663Q107 684 64 684Q32 684 12 672V425H0V784Q0 821 64 821Z" />
<glyph unicode="&#xe30d;" glyph-name="uniE30D" horiz-adv-x="257" d="M192 821Q257 821 257 784V663Q236 684 193 684T129 663V784Q129 821 192 821ZM64 946Q128 946 128 909V788Q107 809 64 809Q32 809 12 797V675H0V909Q0 946 64 946Z" />
<glyph unicode="&#xe30e;" glyph-name="uniE30E" horiz-adv-x="257" d="M192 946Q257 946 257 909V788Q236 809 193 809T129 788V909Q129 946 192 946ZM64 1071Q128 1071 128 1034V913Q107 934 64 934Q32 934 12 922V675H0V1034Q0 1071 64 1071Z" />
<glyph unicode="&#xe30f;" glyph-name="uniE30F" horiz-adv-x="257" d="M192 1071Q257 1071 257 1034V913Q236 934 193 934T129 913V1034Q129 1071 192 1071ZM64 1196Q128 1196 128 1159V1038Q107 1059 64 1059Q32 1059 12 1047V925H0V1159Q0 1196 64 1196Z" />
<glyph unicode="&#xe310;" glyph-name="uniE310" horiz-adv-x="246" d="M64 -54Q128 -54 128 -91V-133H129V-316Q144 -304 180 -304Q245 -304 245 -341V-462Q224 -441 181 -441T117 -462V-203Q97 -191 64 -191Q32 -191 12 -203V-450H0V-91Q0 -54 64 -54Z" />
<glyph unicode="&#xe315;" glyph-name="uniE315" horiz-adv-x="246" d="M64 -54Q128 -54 128 -91V-133H129V-316Q144 -304 180 -304Q245 -304 245 -341V-462Q224 -441 181 -441T117 -462V-203Q97 -191 64 -191Q32 -191 12 -203V-450H0V-91Q0 -54 64 -54Z" />
<glyph unicode="&#xe316;" glyph-name="uniE316" horiz-adv-x="246" d="M64 71Q128 71 128 34V-8H129V-191Q144 -179 180 -179Q245 -179 245 -216V-337Q224 -316 181 -316T117 -337V-78Q97 -66 64 -66Q32 -66 12 -78V-325H0V34Q0 71 64 71Z" />
<glyph unicode="&#xe317;" glyph-name="uniE317" horiz-adv-x="246" d="M64 196Q128 196 128 159V117H129V-66Q144 -54 180 -54Q245 -54 245 -91V-212Q224 -191 181 -191T117 -212V47Q97 59 64 59Q32 59 12 47V-200H0V159Q0 196 64 196Z" />
<glyph unicode="&#xe318;" glyph-name="uniE318" horiz-adv-x="246" d="M64 321Q128 321 128 284V242H129V59Q144 71 180 71Q245 71 245 34V-87Q224 -66 181 -66T117 -87V172Q97 184 64 184Q32 184 12 172V-75H0V284Q0 321 64 321Z" />
<glyph unicode="&#xe319;" glyph-name="uniE319" horiz-adv-x="246" d="M64 446Q128 446 128 409V367H129V184Q144 196 180 196Q245 196 245 159V38Q224 59 181 59T117 38V297Q97 309 64 309Q32 309 12 297V50H0V409Q0 446 64 446Z" />
<glyph unicode="&#xe31a;" glyph-name="uniE31A" horiz-adv-x="246" d="M64 571Q128 571 128 534V492H129V309Q144 321 180 321Q245 321 245 284V163Q224 184 181 184T117 163V422Q97 434 64 434Q32 434 12 422V175H0V534Q0 571 64 571Z" />
<glyph unicode="&#xe31b;" glyph-name="uniE31B" horiz-adv-x="246" d="M64 696Q128 696 128 659V617H129V434Q144 446 180 446Q245 446 245 409V288Q224 309 181 309T117 288V547Q97 559 64 559Q32 559 12 547V300H0V659Q0 696 64 696Z" />
<glyph unicode="&#xe31c;" glyph-name="uniE31C" horiz-adv-x="246" d="M64 821Q128 821 128 784V742H129V559Q144 571 180 571Q245 571 245 534V413Q224 434 181 434T117 413V672Q97 684 64 684Q32 684 12 672V425H0V784Q0 821 64 821Z" />
<glyph unicode="&#xe31d;" glyph-name="uniE31D" horiz-adv-x="246" d="M64 946Q128 946 128 909V867H129V684Q144 696 180 696Q245 696 245 659V538Q224 559 181 559T117 538V797Q97 809 64 809Q32 809 12 797V550H0V909Q0 946 64 946Z" />
<glyph unicode="&#xe31e;" glyph-name="uniE31E" horiz-adv-x="246" d="M64 1071Q128 1071 128 1034V992H129V809Q144 821 180 821Q245 821 245 784V663Q224 684 181 684T117 663V922Q97 934 64 934Q32 934 12 922V675H0V1034Q0 1071 64 1071Z" />
<glyph unicode="&#xe31f;" glyph-name="uniE31F" horiz-adv-x="246" d="M64 1196Q128 1196 128 1159V1117H129V934Q144 946 180 946Q245 946 245 909V788Q224 809 181 809T117 788V1047Q97 1059 64 1059Q32 1059 12 1047V800H0V1159Q0 1196 64 1196Z" />
<glyph unicode="&#xe320;" glyph-name="uniE320" horiz-adv-x="246" d="M180 -429Q245 -429 245 -466V-587Q224 -566 181 -566T117 -587V-203Q97 -191 64 -191Q32 -191 12 -203V-575H0V-91Q0 -54 64 -54Q128 -54 128 -91V-133H129V-441Q144 -429 180 -429Z" />
<glyph unicode="&#xe326;" glyph-name="uniE326" horiz-adv-x="246" d="M180 -304Q245 -304 245 -341V-462Q224 -441 181 -441T117 -462V-78Q97 -66 64 -66Q32 -66 12 -78V-450H0V34Q0 71 64 71Q128 71 128 34V-8H129V-316Q144 -304 180 -304Z" />
<glyph unicode="&#xe327;" glyph-name="uniE327" horiz-adv-x="246" d="M180 -179Q245 -179 245 -216V-337Q224 -316 181 -316T117 -337V47Q97 59 64 59Q32 59 12 47V-325H0V159Q0 196 64 196Q128 196 128 159V117H129V-191Q144 -179 180 -179Z" />
<glyph unicode="&#xe328;" glyph-name="uniE328" horiz-adv-x="246" d="M180 -54Q245 -54 245 -91V-212Q224 -191 181 -191T117 -212V172Q97 184 64 184Q32 184 12 172V-200H0V284Q0 321 64 321Q128 321 128 284V242H129V-66Q144 -54 180 -54Z" />
<glyph unicode="&#xe329;" glyph-name="uniE329" horiz-adv-x="246" d="M64 446Q128 446 128 409V367H129V59Q144 71 180 71Q245 71 245 34V-87Q224 -66 181 -66T117 -87V297Q97 309 64 309Q32 309 12 297V-75H0V409Q0 446 64 446Z" />
<glyph unicode="&#xe32a;" glyph-name="uniE32A" horiz-adv-x="246" d="M180 196Q245 196 245 159V38Q224 59 181 59T117 38V422Q97 434 64 434Q32 434 12 422V50H0V534Q0 571 64 571Q128 571 128 534V492H129V184Q144 196 180 196Z" />
<glyph unicode="&#xe32b;" glyph-name="uniE32B" horiz-adv-x="246" d="M180 321Q245 321 245 284V163Q224 184 181 184T117 163V547Q97 559 64 559Q32 559 12 547V175H0V659Q0 696 64 696Q128 696 128 659V617H129V309Q144 321 180 321Z" />
<glyph unicode="&#xe32c;" glyph-name="uniE32C" horiz-adv-x="246" d="M180 446Q245 446 245 409V288Q224 309 181 309T117 288V672Q97 684 64 684Q32 684 12 672V300H0V784Q0 821 64 821Q128 821 128 784V742H129V434Q144 446 180 446Z" />
<glyph unicode="&#xe32d;" glyph-name="uniE32D" horiz-adv-x="246" d="M180 571Q245 571 245 534V413Q224 434 181 434T117 413V797Q97 809 64 809Q32 809 12 797V425H0V909Q0 946 64 946Q128 946 128 909V867H129V559Q144 571 180 571Z" />
<glyph unicode="&#xe32e;" glyph-name="uniE32E" horiz-adv-x="246" d="M180 696Q245 696 245 659V538Q224 559 181 559T117 538V922Q97 934 64 934Q32 934 12 922V550H0V1034Q0 1071 64 1071Q128 1071 128 1034V992H129V684Q144 696 180 696Z" />
<glyph unicode="&#xe32f;" glyph-name="uniE32F" horiz-adv-x="246" d="M180 821Q245 821 245 784V663Q224 684 181 684T117 663V1047Q97 1059 64 1059Q32 1059 12 1047V675H0V1159Q0 1196 64 1196Q128 1196 128 1159V1117H129V809Q144 821 180 821Z" />
<glyph unicode="&#xe330;" glyph-name="uniE330" horiz-adv-x="246" d="M64 -54Q128 -54 128 -91V-133H129V-566Q144 -554 180 -554Q245 -554 245 -591V-712Q224 -691 181 -691T117 -712V-203Q97 -191 64 -191Q32 -191 12 -203V-700H0V-91Q0 -54 64 -54Z" />
<glyph unicode="&#xe337;" glyph-name="uniE337" horiz-adv-x="246" d="M64 196Q128 196 128 159V117H129V-316Q144 -304 180 -304Q245 -304 245 -341V-462Q224 -441 181 -441T117 -462V47Q97 59 64 59Q32 59 12 47V-450H0V159Q0 196 64 196Z" />
<glyph unicode="&#xe338;" glyph-name="uniE338" horiz-adv-x="246" d="M64 321Q128 321 128 284V242H129V-191Q144 -179 180 -179Q245 -179 245 -216V-337Q224 -316 181 -316T117 -337V172Q97 184 64 184Q32 184 12 172V-325H0V284Q0 321 64 321Z" />
<glyph unicode="&#xe339;" glyph-name="uniE339" horiz-adv-x="246" d="M64 446Q128 446 128 409V367H129V-66Q144 -54 180 -54Q245 -54 245 -91V-212Q224 -191 181 -191T117 -212V297Q97 309 64 309Q32 309 12 297V-200H0V409Q0 446 64 446Z" />
<glyph unicode="&#xe33a;" glyph-name="uniE33A" horiz-adv-x="246" d="M64 571Q128 571 128 534V492H129V59Q144 71 180 71Q245 71 245 34V-87Q224 -66 181 -66T117 -87V422Q97 434 64 434Q32 434 12 422V-75H0V534Q0 571 64 571Z" />
<glyph unicode="&#xe33b;" glyph-name="uniE33B" horiz-adv-x="246" d="M64 696Q128 696 128 659V617H129V184Q144 196 180 196Q245 196 245 159V38Q224 59 181 59T117 38V547Q97 559 64 559Q32 559 12 547V50H0V659Q0 696 64 696Z" />
<glyph unicode="&#xe33c;" glyph-name="uniE33C" horiz-adv-x="246" d="M64 821Q128 821 128 784V742H129V309Q144 321 180 321Q245 321 245 284V163Q224 184 181 184T117 163V672Q97 684 64 684Q32 684 12 672V175H0V784Q0 821 64 821Z" />
<glyph unicode="&#xe33d;" glyph-name="uniE33D" horiz-adv-x="246" d="M64 946Q128 946 128 909V867H129V434Q144 446 180 446Q245 446 245 409V288Q224 309 181 309T117 288V797Q97 809 64 809Q32 809 12 797V300H0V909Q0 946 64 946Z" />
<glyph unicode="&#xe33e;" glyph-name="uniE33E" horiz-adv-x="246" d="M64 1071Q128 1071 128 1034V992H129V559Q144 571 180 571Q245 571 245 534V413Q224 434 181 434T117 413V922Q97 934 64 934Q32 934 12 922V425H0V1034Q0 1071 64 1071Z" />
<glyph unicode="&#xe33f;" glyph-name="uniE33F" horiz-adv-x="246" d="M64 1196Q128 1196 128 1159V1117H129V684Q144 696 180 696Q245 696 245 659V538Q224 559 181 559T117 538V1047Q97 1059 64 1059Q32 1059 12 1047V550H0V1159Q0 1196 64 1196Z" />
<glyph unicode="&#xe340;" glyph-name="uniE340" horiz-adv-x="128" d="M37 -163Q71 -163 98 -181T126 -218Q126 -348 125 -348Q51 -348 6 -301Q1 -187 2 -89Q2 -57 2 -26Q2 -5 12 -5Q20 -5 20 -25L18 -253Q59 -299 96 -299Q114 -299 114 -281Q114 -264 106 -254T71
-227L37 -208V-163Z" />
<glyph unicode="&#xe341;" glyph-name="unie341" horiz-adv-x="128" d="M37 87Q71 87 98 69T126 32Q126 -98 125 -98Q51 -98 6 -51Q1 63 2 161Q2 193 2 224Q2 245 12 245Q20 245 20 225L18 -3Q59 -49 96 -49Q114 -49 114 -31Q114 -14 106 -4T71 23L37 42V87Z" />
</font>
</defs>
</svg>
