<?xml version="1.0" standalone="no"?><!DOCTYPE svg PUBLIC "-//W3C//DTD SVG 1.1//EN" "http://www.w3.org/Graphics/SVG/1.1/DTD/svg11.dtd" [<!ENTITY nbsp "&#160;">]><svg xmlns="http://www.w3.org/2000/svg" version="1.1" class="ChantScore" viewBox="-5.7 -5.7 69.204752349853516 63.504752349853516" xmlns:xlink="http://www.w3.org/1999/xlink"><g><defs><g id="PunctumQuadratum" class="glyph" transform="scale(0.0625)"><path d="M0-60.906c33.333 0 50 9.635 50 28.906v94.53C39.062 51.595 22.396 46.126 0 46.126s-39.063 5.47-50 16.406V-32c0-19.27 16.667-28.906 50-28.906z"></path></g><g id="PodatusLower" class="glyph" transform="scale(0.0625)"><path d="M-4.688-30.28c22.396 0 34.636-.262 36.72-.782 5.728-1.563 8.593-5.21 8.593-10.938H50v97.656c0 2.604-1.302 4.167-3.906 4.688-5.21.52-21.355.78-48.438.78-23.958 0-38.54-.26-43.75-.78-2.604 0-3.906-1.302-3.906-3.906v-82.032c0-3.646 1.302-5.468 3.906-5.468h2.344c2.604.52 15.625.78 39.063.78z"></path></g><g id="PodatusUpper" class="glyph" transform="scale(0.0625)"><path d="M-46.094-63.78c13.542 0 24.61 2.473 33.203 7.42C-4.298-51.41 0-43.99 0-34.093V62h-9.375c0-10.938-2.604-19.14-7.812-24.61-5.21-5.468-14.844-8.203-28.907-8.202-18.23 0-33.333 4.166-45.312 12.5v-75.782c0-19.79 15.104-29.687 45.312-29.687z"></path></g><g id="PunctumCavum" class="glyph" transform="scale(0.0625)"><path d="M0-60.906c33.333 0 50 9.635 50 28.906v94.53C39.062 51.595 22.396 46.126 0 46.126s-39.063 5.47-50 16.406V-32c0-19.27 16.667-28.906 50-28.906z"></path><path d="M.08-42.56c9.585.206 20.126.53 27.954 6.822 4.96 3.9 4.71 10.792 4.574 16.482v51.278C22.09 27.066 7.283 26.072.168 26.01c-7.72.23-21.895.935-32.616 4.674.04-19.197-.083-38.395.064-57.59.567-7.5 7.834-12.33 14.62-13.774 5.818-1.498 11.857-1.86 17.844-1.88z" fill="#fff"></path></g><g id="None" class="glyph" transform="scale(0.0625)"><g></g></g><g id="DoClef" class="glyph" transform="scale(0.0625)"><path d="M0 98.406V-97.688C0-118 5.99-134.275 17.97-146.516c11.978-12.24 27.603-18.36 46.874-18.36 10.937 0 19.53 3.126 25.78 9.376s9.376 14.583 9.376 25v107.813l-6.25-5.47c-4.167-3.645-10.287-7.42-18.36-11.327-8.072-3.907-16.796-5.86-26.17-5.86-11.46 0-21.486 4.427-30.08 13.282-8.593 8.854-12.89 19.53-12.89 32.03s4.297 23.308 12.89 32.423c8.594 9.115 18.62 13.672 30.08 13.672 9.374 0 18.098-1.822 26.17-5.468 8.073-3.646 14.193-7.292 18.36-10.938l6.25-6.25V132c0 9.896-3.125 18.1-9.375 24.61-6.25 6.51-14.844 9.765-25.78 9.765-19.272 0-34.897-6.25-46.876-18.75C5.99 135.125 0 118.72 0 98.405z"></path></g><g id="CustosShort" class="glyph" transform="scale(0.0625)"><path d="M34.375-188.125c0-8.333 1.563-12.24 4.688-11.72 3.125.522 4.687 7.033 4.687 19.532v250c-13.542-2.083-24.22-5.468-32.03-10.156C3.905 54.324 0 47.813 0 40V-67.813c5.73 5.21 10.677 8.594 14.844 10.157 5.73 1.562 12.24 2.344 19.53 2.343v-132.812z"></path></g><g id="CustosLong" class="glyph" transform="scale(0.0625)"><path d="M39.063-269.562c5.73-.52 7.29 6.25 4.687 20.312V69.5c-13.542-2.083-24.22-5.47-32.03-10.156C3.905 54.134 0 47.624 0 39.812V-68c5.73 5.208 10.677 8.594 14.844 10.156 5.73 1.563 12.24 2.344 19.53 2.344v-196.875c0-11.458 1.563-17.187 4.688-17.187z"></path></g><style>.lyric{fill:#000;font-family:'Crimson Text', serif;font-size:19.2px;font-kerning:normal}.aboveLinesText{fill:#000;font-family:'Crimson Text', serif;font-size:16px;font-kerning:normal}.dropCap{fill:#000;font-family:'Crimson Text', serif;font-size:64px;font-kerning:normal}.annotation{fill:#000;font-family:'Crimson Text', serif;font-size:13px;font-kerning:normal}</style></defs><g class="chantLine" transform="translate(0,29.054750442504883)"><line x1="0" y1="-18.75" x2="57.804750432" y2="-18.75" stroke="#000" stroke-width="1" class="staffLine"></line><line x1="0" y1="-6.25" x2="57.804750432" y2="-6.25" stroke="#000" stroke-width="1" class="staffLine"></line><line x1="0" y1="6.25" x2="57.804750432" y2="6.25" stroke="#000" stroke-width="1" class="staffLine"></line><line x1="0" y1="18.75" x2="57.804750432" y2="18.75" stroke="#000" stroke-width="1" class="staffLine"></line><g class="ChantNotationElement e" transform="translate(0,0)"><g class="Notations"><use xlink:href="#DoClef" x="0" y="-18.75"></use></g></g><g class="ChantNotationElement e" transform="translate(14.0625,0)"><g class="Notations"><use source-index="31" xlink:href="#PunctumQuadratum" x="3.125" y="6.25"></use></g></g><g class="ChantNotationElement e" transform="translate(26.5625,0)"><g class="Notations"><use source-index="34" xlink:href="#PodatusLower" x="3.125" y="0"></use><use source-index="35" xlink:href="#PodatusUpper" x="6.25" y="-6.25"></use></g></g><g class="ChantNotationElement e" transform="translate(39.0625,0)"><g class="Notations"><use source-index="38" xlink:href="#PunctumCavum" x="3.125" y="-6.25"></use></g></g></g></g></svg>
