<svg xmlns="http://www.w3.org/2000/svg" class="ChantScore" viewBox="-5.7 -5.7 69.2048 63.5048">
  <g class="chantLine">
    <path stroke="#000" d="M0 10.3048h57.8048M0 22.8048h57.8048M0 35.3048h57.8048M0 47.8048h57.8048" class="staffLine"/>
    <g class="ChantNotationElement e">
      <path d="M0 16.4504V4.1945C0 2.925.3744 1.9078 1.1231 1.1428 1.8717.3778 2.8483-.0047 4.0528-.0047c.6835 0 1.2206.1953 1.6112.586s.586.9114.586 1.5625V8.882l-.3906-.342c-.2605-.2277-.643-.4637-1.1475-.7078-.5045-.2442-1.0498-.3663-1.6357-.3663-.7162 0-1.3428.2767-1.88.8301-.537.5534-.8056 1.2207-.8056 2.0019s.2686 1.4568.8056 2.0264c.5372.5697 1.1638.8545 1.88.8545.586 0 1.1312-.1138 1.6357-.3417s.887-.4558 1.1475-.6836l.3906-.3907V18.55c0 .6185-.1953 1.1313-.586 1.5381-.3906.4069-.9277.6103-1.6112.6103-1.2045 0-2.181-.3906-2.9297-1.1718S0 17.72 0 16.4503z" class="glyph"/>
    </g>
    <path d="M17.1875 31.4982c2.0833 0 3.125.6022 3.125 1.8066v5.9081c-.6836-.6834-1.7252-1.0252-3.125-1.0252s-2.4414.3418-3.125 1.0253v-5.9082c0-1.2044 1.0417-1.8066 3.125-1.8066z" class="ChantNotationElement e"/>
    <g class="ChantNotationElement e">
      <g class="Notations">
        <path d="M29.3945 27.1623c1.3998 0 2.1648-.0164 2.295-.0489.358-.0977.537-.3256.537-.6836h.586v6.1035c0 .1628-.0814.2604-.2441.293-.3256.0325-1.3347.0487-3.0274.0487-1.4974 0-2.4087-.0162-2.7344-.0487-.1627 0-.2441-.0814-.2441-.2441v-5.127c0-.2279.0814-.3418.2441-.3418h.1465c.1628.0325.9766.0488 2.4415.0488z" class="glyph"/>
        <path d="M29.9316 18.8186c.8464 0 1.5382.1545 2.0752.4637.537.3094.8057.7731.8057 1.3917v6.0058h-.586c0-.6836-.1627-1.1963-.4882-1.5381-.3256-.3418-.9277-.5127-1.8067-.5127-1.1393 0-2.0833.2604-2.832.7813v-4.7364c0-1.2368.944-1.8554 2.832-1.8554z" class="glyph"/>
      </g>
    </g>
    <g class="ChantNotationElement e">
      <g class="glyph">
        <path d="M42.1875 18.9982c2.0833 0 3.125.6022 3.125 1.8066v5.9081c-.6836-.6834-1.7252-1.0251-3.125-1.0251s-2.4414.3419-3.125 1.0253v-5.9083c0-1.2044 1.0417-1.8066 3.125-1.8066z"/>
        <path fill="#fff" d="M42.1925 20.1448c.599.0129 1.2579.0331 1.7471.4264.31.2437.2944.6745.2859 1.0301v3.2049c-.6574-.3098-1.5828-.3719-2.0275-.3758-.4825.0144-1.3684.0585-2.0385.2922.0025-1.1999-.0052-2.3997.004-3.5994.0354-.4688.4896-.7707.9137-.8609.3637-.0936.7411-.1163 1.1153-.1175z"/>
      </g>
    </g>
  </g>
</svg>